<svg xmlns="http://www.w3.org/2000/svg" xmlns:xlink="http://www.w3.org/1999/xlink" width="300" zoomAndPan="magnify" viewBox="0 0 224.87999 74.999997" height="100" preserveAspectRatio="xMidYMid meet" version="1.0"><defs><g/><clipPath id="cd0c8bc1f9"><path d="M 7.496094 11.644531 L 58 11.644531 L 58 58.117188 L 7.496094 58.117188 Z M 7.496094 11.644531 " clip-rule="nonzero"/></clipPath><clipPath id="a7184afd48"><path d="M 21.8125 26.257812 L 44.300781 26.257812 L 44.300781 48.742188 L 21.8125 48.742188 Z M 21.8125 26.257812 " clip-rule="nonzero"/></clipPath><clipPath id="2401b3dcf4"><path d="M 33.054688 26.257812 C 26.847656 26.257812 21.8125 31.289062 21.8125 37.5 C 21.8125 43.710938 26.847656 48.742188 33.054688 48.742188 C 39.265625 48.742188 44.300781 43.710938 44.300781 37.5 C 44.300781 31.289062 39.265625 26.257812 33.054688 26.257812 Z M 33.054688 26.257812 " clip-rule="nonzero"/></clipPath><clipPath id="84591af130"><path d="M 0.8125 0.257812 L 23.300781 0.257812 L 23.300781 22.742188 L 0.8125 22.742188 Z M 0.8125 0.257812 " clip-rule="nonzero"/></clipPath><clipPath id="481d35c987"><path d="M 12.054688 0.257812 C 5.847656 0.257812 0.8125 5.289062 0.8125 11.5 C 0.8125 17.710938 5.847656 22.742188 12.054688 22.742188 C 18.265625 22.742188 23.300781 17.710938 23.300781 11.5 C 23.300781 5.289062 18.265625 0.257812 12.054688 0.257812 Z M 12.054688 0.257812 " clip-rule="nonzero"/></clipPath><clipPath id="72d8b8ead0"><rect x="0" width="24" y="0" height="23"/></clipPath></defs><g clip-path="url(#cd0c8bc1f9)"><path fill="#ea7d28" d="M 19.578125 57.851562 C 21.167969 58.8125 23.171875 58.136719 24.097656 56.527344 C 25.21875 54.585938 24.304688 52.113281 22.464844 50.828125 C 17.957031 47.679688 15.007812 42.449219 15.007812 36.53125 C 15.007812 26.910156 22.808594 19.109375 32.429688 19.109375 C 42.050781 19.109375 49.851562 26.910156 49.851562 36.53125 C 49.851562 42.324219 47.027344 47.457031 42.675781 50.625 C 40.886719 51.929688 40.015625 54.371094 41.121094 56.289062 C 42.066406 57.921875 44.117188 58.59375 45.710938 57.585938 C 52.6875 53.175781 57.320312 45.394531 57.320312 36.53125 C 57.320312 22.785156 46.175781 11.644531 32.429688 11.644531 C 18.683594 11.644531 7.539062 22.785156 7.539062 36.53125 C 7.539062 45.578125 12.363281 53.492188 19.578125 57.851562 Z M 32.429688 46.488281 C 37.929688 46.488281 42.386719 42.03125 42.386719 36.53125 C 42.386719 31.035156 37.929688 26.578125 32.429688 26.578125 C 26.933594 26.578125 22.472656 31.035156 22.472656 36.53125 C 22.472656 42.03125 26.933594 46.488281 32.429688 46.488281 Z M 32.429688 46.488281 " fill-opacity="1" fill-rule="evenodd"/></g><g fill="#ea7d28" fill-opacity="1"><g transform="translate(62.461015, 42.283792)"><g><path d="M 7.03125 0.21875 C 5.90625 0.21875 4.800781 0.0234375 3.71875 -0.359375 C 2.632812 -0.753906 1.648438 -1.351562 0.765625 -2.15625 L 2.671875 -4.453125 C 3.347656 -3.898438 4.039062 -3.460938 4.75 -3.140625 C 5.46875 -2.816406 6.25 -2.65625 7.09375 -2.65625 C 7.757812 -2.65625 8.28125 -2.773438 8.65625 -3.015625 C 9.03125 -3.265625 9.21875 -3.609375 9.21875 -4.046875 L 9.21875 -4.09375 C 9.21875 -4.300781 9.175781 -4.484375 9.09375 -4.640625 C 9.019531 -4.804688 8.875 -4.957031 8.65625 -5.09375 C 8.4375 -5.238281 8.132812 -5.378906 7.75 -5.515625 C 7.363281 -5.660156 6.863281 -5.8125 6.25 -5.96875 C 5.5 -6.15625 4.820312 -6.359375 4.21875 -6.578125 C 3.613281 -6.804688 3.097656 -7.082031 2.671875 -7.40625 C 2.253906 -7.738281 1.925781 -8.148438 1.6875 -8.640625 C 1.457031 -9.140625 1.34375 -9.753906 1.34375 -10.484375 L 1.34375 -10.53125 C 1.34375 -11.195312 1.46875 -11.800781 1.71875 -12.34375 C 1.976562 -12.882812 2.335938 -13.351562 2.796875 -13.75 C 3.253906 -14.144531 3.796875 -14.445312 4.421875 -14.65625 C 5.054688 -14.875 5.753906 -14.984375 6.515625 -14.984375 C 7.597656 -14.984375 8.59375 -14.816406 9.5 -14.484375 C 10.40625 -14.160156 11.238281 -13.695312 12 -13.09375 L 10.3125 -10.65625 C 9.65625 -11.101562 9.007812 -11.457031 8.375 -11.71875 C 7.738281 -11.976562 7.101562 -12.109375 6.46875 -12.109375 C 5.84375 -12.109375 5.367188 -11.984375 5.046875 -11.734375 C 4.734375 -11.492188 4.578125 -11.191406 4.578125 -10.828125 L 4.578125 -10.78125 C 4.578125 -10.539062 4.625 -10.332031 4.71875 -10.15625 C 4.8125 -9.976562 4.972656 -9.816406 5.203125 -9.671875 C 5.441406 -9.535156 5.769531 -9.40625 6.1875 -9.28125 C 6.601562 -9.15625 7.128906 -9.007812 7.765625 -8.84375 C 8.503906 -8.644531 9.164062 -8.421875 9.75 -8.171875 C 10.332031 -7.929688 10.820312 -7.632812 11.21875 -7.28125 C 11.625 -6.9375 11.929688 -6.53125 12.140625 -6.0625 C 12.347656 -5.601562 12.453125 -5.050781 12.453125 -4.40625 L 12.453125 -4.359375 C 12.453125 -3.628906 12.316406 -2.976562 12.046875 -2.40625 C 11.773438 -1.84375 11.398438 -1.367188 10.921875 -0.984375 C 10.441406 -0.597656 9.875 -0.300781 9.21875 -0.09375 C 8.5625 0.113281 7.832031 0.21875 7.03125 0.21875 Z M 7.03125 0.21875 "/></g></g></g><g fill="#ea7d28" fill-opacity="1"><g transform="translate(75.953838, 42.283792)"><g><path d="M 1.4375 -11.3125 L 4.640625 -11.3125 L 4.640625 -9.6875 C 5.035156 -10.21875 5.507812 -10.65625 6.0625 -11 C 6.613281 -11.34375 7.3125 -11.515625 8.15625 -11.515625 C 8.820312 -11.515625 9.460938 -11.390625 10.078125 -11.140625 C 10.703125 -10.890625 11.253906 -10.515625 11.734375 -10.015625 C 12.210938 -9.515625 12.59375 -8.898438 12.875 -8.171875 C 13.164062 -7.453125 13.3125 -6.617188 13.3125 -5.671875 L 13.3125 -5.625 C 13.3125 -4.6875 13.164062 -3.851562 12.875 -3.125 C 12.59375 -2.40625 12.210938 -1.796875 11.734375 -1.296875 C 11.265625 -0.796875 10.71875 -0.414062 10.09375 -0.15625 C 9.476562 0.09375 8.832031 0.21875 8.15625 0.21875 C 7.300781 0.21875 6.59375 0.0507812 6.03125 -0.28125 C 5.476562 -0.625 5.015625 -1.023438 4.640625 -1.484375 L 4.640625 3.375 L 1.4375 3.375 Z M 7.34375 -2.515625 C 7.71875 -2.515625 8.070312 -2.585938 8.40625 -2.734375 C 8.738281 -2.878906 9.03125 -3.085938 9.28125 -3.359375 C 9.53125 -3.640625 9.726562 -3.96875 9.875 -4.34375 C 10.03125 -4.726562 10.109375 -5.15625 10.109375 -5.625 L 10.109375 -5.671875 C 10.109375 -6.140625 10.03125 -6.566406 9.875 -6.953125 C 9.726562 -7.335938 9.53125 -7.664062 9.28125 -7.9375 C 9.03125 -8.21875 8.738281 -8.429688 8.40625 -8.578125 C 8.070312 -8.722656 7.71875 -8.796875 7.34375 -8.796875 C 6.957031 -8.796875 6.597656 -8.722656 6.265625 -8.578125 C 5.941406 -8.429688 5.65625 -8.21875 5.40625 -7.9375 C 5.164062 -7.664062 4.96875 -7.335938 4.8125 -6.953125 C 4.664062 -6.566406 4.59375 -6.140625 4.59375 -5.671875 L 4.59375 -5.625 C 4.59375 -5.164062 4.664062 -4.742188 4.8125 -4.359375 C 4.96875 -3.972656 5.164062 -3.640625 5.40625 -3.359375 C 5.65625 -3.085938 5.941406 -2.878906 6.265625 -2.734375 C 6.597656 -2.585938 6.957031 -2.515625 7.34375 -2.515625 Z M 7.34375 -2.515625 "/></g></g></g><g fill="#ea7d28" fill-opacity="1"><g transform="translate(90.184547, 42.283792)"><g><path d="M 6.984375 0.25 C 6.109375 0.25 5.296875 0.0976562 4.546875 -0.203125 C 3.804688 -0.503906 3.164062 -0.914062 2.625 -1.4375 C 2.082031 -1.96875 1.65625 -2.585938 1.34375 -3.296875 C 1.039062 -4.003906 0.890625 -4.769531 0.890625 -5.59375 L 0.890625 -5.625 C 0.890625 -6.445312 1.039062 -7.210938 1.34375 -7.921875 C 1.65625 -8.628906 2.082031 -9.25 2.625 -9.78125 C 3.175781 -10.320312 3.828125 -10.742188 4.578125 -11.046875 C 5.328125 -11.359375 6.144531 -11.515625 7.03125 -11.515625 C 7.894531 -11.515625 8.695312 -11.363281 9.4375 -11.0625 C 10.1875 -10.757812 10.832031 -10.34375 11.375 -9.8125 C 11.914062 -9.289062 12.34375 -8.671875 12.65625 -7.953125 C 12.96875 -7.242188 13.125 -6.484375 13.125 -5.671875 L 13.125 -5.625 C 13.125 -4.8125 12.96875 -4.050781 12.65625 -3.34375 C 12.34375 -2.632812 11.910156 -2.007812 11.359375 -1.46875 C 10.816406 -0.9375 10.171875 -0.515625 9.421875 -0.203125 C 8.679688 0.0976562 7.867188 0.25 6.984375 0.25 Z M 7.03125 -2.515625 C 7.488281 -2.515625 7.894531 -2.59375 8.25 -2.75 C 8.613281 -2.914062 8.921875 -3.140625 9.171875 -3.421875 C 9.429688 -3.703125 9.625 -4.023438 9.75 -4.390625 C 9.882812 -4.765625 9.953125 -5.164062 9.953125 -5.59375 L 9.953125 -5.625 C 9.953125 -6.050781 9.878906 -6.453125 9.734375 -6.828125 C 9.597656 -7.203125 9.394531 -7.53125 9.125 -7.8125 C 8.863281 -8.101562 8.550781 -8.332031 8.1875 -8.5 C 7.820312 -8.664062 7.421875 -8.75 6.984375 -8.75 C 6.515625 -8.75 6.097656 -8.664062 5.734375 -8.5 C 5.378906 -8.34375 5.078125 -8.125 4.828125 -7.84375 C 4.578125 -7.5625 4.382812 -7.234375 4.25 -6.859375 C 4.113281 -6.492188 4.046875 -6.097656 4.046875 -5.671875 L 4.046875 -5.625 C 4.046875 -5.207031 4.113281 -4.8125 4.25 -4.4375 C 4.394531 -4.0625 4.601562 -3.726562 4.875 -3.4375 C 5.144531 -3.15625 5.457031 -2.929688 5.8125 -2.765625 C 6.164062 -2.597656 6.570312 -2.515625 7.03125 -2.515625 Z M 7.03125 -2.515625 "/></g></g></g><g fill="#ea7d28" fill-opacity="1"><g transform="translate(104.183351, 42.283792)"><g><path d="M 5.25 0.1875 C 4.757812 0.1875 4.3125 0.132812 3.90625 0.03125 C 3.507812 -0.0703125 3.164062 -0.253906 2.875 -0.515625 C 2.59375 -0.785156 2.367188 -1.132812 2.203125 -1.5625 C 2.046875 -2 1.96875 -2.546875 1.96875 -3.203125 L 1.96875 -8.5625 L 0.609375 -8.5625 L 0.609375 -11.3125 L 1.96875 -11.3125 L 1.96875 -14.203125 L 5.171875 -14.203125 L 5.171875 -11.3125 L 7.828125 -11.3125 L 7.828125 -8.5625 L 5.171875 -8.5625 L 5.171875 -3.734375 C 5.171875 -3.003906 5.515625 -2.640625 6.203125 -2.640625 C 6.765625 -2.640625 7.289062 -2.769531 7.78125 -3.03125 L 7.78125 -0.46875 C 7.445312 -0.269531 7.070312 -0.113281 6.65625 0 C 6.25 0.125 5.78125 0.1875 5.25 0.1875 Z M 5.25 0.1875 "/></g></g></g><g fill="#ea7d28" fill-opacity="1"><g transform="translate(112.9326, 42.283792)"><g><path d="M 1.578125 -15.40625 L 4.78125 -15.40625 L 4.78125 0 L 1.578125 0 Z M 1.578125 -15.40625 "/></g></g></g><g fill="#ea7d28" fill-opacity="1"><g transform="translate(119.299521, 42.283792)"><g><path d="M 1.5 -15.40625 L 4.875 -15.40625 L 4.875 -12.546875 L 1.5 -12.546875 Z M 1.578125 -11.3125 L 4.78125 -11.3125 L 4.78125 0 L 1.578125 0 Z M 1.578125 -11.3125 "/></g></g></g><g fill="#ea7d28" fill-opacity="1"><g transform="translate(125.666442, 42.283792)"><g><path d="M 5.25 0.1875 C 4.757812 0.1875 4.3125 0.132812 3.90625 0.03125 C 3.507812 -0.0703125 3.164062 -0.253906 2.875 -0.515625 C 2.59375 -0.785156 2.367188 -1.132812 2.203125 -1.5625 C 2.046875 -2 1.96875 -2.546875 1.96875 -3.203125 L 1.96875 -8.5625 L 0.609375 -8.5625 L 0.609375 -11.3125 L 1.96875 -11.3125 L 1.96875 -14.203125 L 5.171875 -14.203125 L 5.171875 -11.3125 L 7.828125 -11.3125 L 7.828125 -8.5625 L 5.171875 -8.5625 L 5.171875 -3.734375 C 5.171875 -3.003906 5.515625 -2.640625 6.203125 -2.640625 C 6.765625 -2.640625 7.289062 -2.769531 7.78125 -3.03125 L 7.78125 -0.46875 C 7.445312 -0.269531 7.070312 -0.113281 6.65625 0 C 6.25 0.125 5.78125 0.1875 5.25 0.1875 Z M 5.25 0.1875 "/></g></g></g><g fill="#ea7d28" fill-opacity="1"><g transform="translate(134.099396, 42.283792)"><g><path d="M 6.796875 0.25 C 5.953125 0.25 5.164062 0.109375 4.4375 -0.171875 C 3.71875 -0.453125 3.09375 -0.851562 2.5625 -1.375 C 2.03125 -1.894531 1.617188 -2.507812 1.328125 -3.21875 C 1.035156 -3.925781 0.890625 -4.71875 0.890625 -5.59375 L 0.890625 -5.625 C 0.890625 -6.425781 1.023438 -7.1875 1.296875 -7.90625 C 1.566406 -8.625 1.945312 -9.25 2.4375 -9.78125 C 2.9375 -10.320312 3.523438 -10.742188 4.203125 -11.046875 C 4.890625 -11.359375 5.644531 -11.515625 6.46875 -11.515625 C 7.414062 -11.515625 8.234375 -11.34375 8.921875 -11 C 9.609375 -10.664062 10.179688 -10.210938 10.640625 -9.640625 C 11.097656 -9.078125 11.4375 -8.425781 11.65625 -7.6875 C 11.875 -6.945312 11.984375 -6.175781 11.984375 -5.375 C 11.984375 -5.25 11.976562 -5.113281 11.96875 -4.96875 C 11.957031 -4.832031 11.945312 -4.6875 11.9375 -4.53125 L 4.078125 -4.53125 C 4.222656 -3.800781 4.539062 -3.25 5.03125 -2.875 C 5.519531 -2.507812 6.117188 -2.328125 6.828125 -2.328125 C 7.367188 -2.328125 7.847656 -2.414062 8.265625 -2.59375 C 8.691406 -2.78125 9.128906 -3.078125 9.578125 -3.484375 L 11.40625 -1.859375 C 10.875 -1.191406 10.226562 -0.671875 9.46875 -0.296875 C 8.707031 0.0664062 7.816406 0.25 6.796875 0.25 Z M 8.859375 -6.546875 C 8.765625 -7.253906 8.507812 -7.828125 8.09375 -8.265625 C 7.6875 -8.710938 7.144531 -8.9375 6.46875 -8.9375 C 5.800781 -8.9375 5.257812 -8.71875 4.84375 -8.28125 C 4.425781 -7.851562 4.15625 -7.273438 4.03125 -6.546875 Z M 8.859375 -6.546875 "/></g></g></g><g fill="#ffffff" fill-opacity="1"><g transform="translate(147.025258, 42.283792)"><g/></g></g><g fill="#219ebc" fill-opacity="1"><g transform="translate(153.36172, 42.283792)"><g><path d="M 6.828125 -14.875 L 9.828125 -14.875 L 16.15625 0 L 12.765625 0 L 11.40625 -3.3125 L 5.171875 -3.3125 L 3.8125 0 L 0.5 0 Z M 10.25 -6.1875 L 8.296875 -10.96875 L 6.328125 -6.1875 Z M 10.25 -6.1875 "/></g></g></g><g fill="#219ebc" fill-opacity="1"><g transform="translate(169.595187, 42.283792)"><g><path d="M 1.984375 -8.5625 L 0.65625 -8.5625 L 0.65625 -11.203125 L 1.984375 -11.203125 L 1.984375 -11.921875 C 1.984375 -13.140625 2.285156 -14.050781 2.890625 -14.65625 C 3.484375 -15.25 4.347656 -15.546875 5.484375 -15.546875 C 5.992188 -15.546875 6.425781 -15.515625 6.78125 -15.453125 C 7.132812 -15.398438 7.460938 -15.328125 7.765625 -15.234375 L 7.765625 -12.578125 C 7.523438 -12.660156 7.289062 -12.722656 7.0625 -12.765625 C 6.84375 -12.816406 6.59375 -12.84375 6.3125 -12.84375 C 5.53125 -12.84375 5.140625 -12.4375 5.140625 -11.625 L 5.140625 -11.1875 L 7.734375 -11.1875 L 7.734375 -8.5625 L 5.1875 -8.5625 L 5.1875 0 L 1.984375 0 Z M 1.984375 -8.5625 "/></g></g></g><g fill="#219ebc" fill-opacity="1"><g transform="translate(177.648719, 42.283792)"><g><path d="M 1.4375 -11.3125 L 4.640625 -11.3125 L 4.640625 -9.03125 C 4.960938 -9.800781 5.40625 -10.414062 5.96875 -10.875 C 6.53125 -11.34375 7.289062 -11.554688 8.25 -11.515625 L 8.25 -8.15625 L 8.078125 -8.15625 C 7.003906 -8.15625 6.160156 -7.832031 5.546875 -7.1875 C 4.941406 -6.539062 4.640625 -5.535156 4.640625 -4.171875 L 4.640625 0 L 1.4375 0 Z M 1.4375 -11.3125 "/></g></g></g><g fill="#219ebc" fill-opacity="1"><g transform="translate(186.46122, 42.283792)"><g><path d="M 1.5 -15.40625 L 4.875 -15.40625 L 4.875 -12.546875 L 1.5 -12.546875 Z M 1.578125 -11.3125 L 4.78125 -11.3125 L 4.78125 0 L 1.578125 0 Z M 1.578125 -11.3125 "/></g></g></g><g fill="#219ebc" fill-opacity="1"><g transform="translate(192.828141, 42.283792)"><g><path d="M 6.765625 0.25 C 5.921875 0.25 5.132812 0.0976562 4.40625 -0.203125 C 3.6875 -0.515625 3.066406 -0.929688 2.546875 -1.453125 C 2.023438 -1.984375 1.617188 -2.601562 1.328125 -3.3125 C 1.035156 -4.03125 0.890625 -4.789062 0.890625 -5.59375 L 0.890625 -5.625 C 0.890625 -6.425781 1.035156 -7.1875 1.328125 -7.90625 C 1.617188 -8.625 2.023438 -9.25 2.546875 -9.78125 C 3.066406 -10.320312 3.6875 -10.742188 4.40625 -11.046875 C 5.132812 -11.359375 5.9375 -11.515625 6.8125 -11.515625 C 7.882812 -11.515625 8.769531 -11.34375 9.46875 -11 C 10.175781 -10.664062 10.796875 -10.207031 11.328125 -9.625 L 9.359375 -7.515625 C 8.992188 -7.890625 8.617188 -8.1875 8.234375 -8.40625 C 7.847656 -8.632812 7.367188 -8.75 6.796875 -8.75 C 6.390625 -8.75 6.019531 -8.664062 5.6875 -8.5 C 5.351562 -8.34375 5.0625 -8.125 4.8125 -7.84375 C 4.570312 -7.5625 4.382812 -7.234375 4.25 -6.859375 C 4.113281 -6.492188 4.046875 -6.097656 4.046875 -5.671875 L 4.046875 -5.625 C 4.046875 -5.195312 4.113281 -4.789062 4.25 -4.40625 C 4.382812 -4.03125 4.578125 -3.703125 4.828125 -3.421875 C 5.078125 -3.140625 5.378906 -2.914062 5.734375 -2.75 C 6.085938 -2.59375 6.484375 -2.515625 6.921875 -2.515625 C 7.453125 -2.515625 7.914062 -2.625 8.3125 -2.84375 C 8.71875 -3.0625 9.117188 -3.351562 9.515625 -3.71875 L 11.390625 -1.8125 C 10.835938 -1.207031 10.207031 -0.710938 9.5 -0.328125 C 8.800781 0.0546875 7.890625 0.25 6.765625 0.25 Z M 6.765625 0.25 "/></g></g></g><g fill="#219ebc" fill-opacity="1"><g transform="translate(204.866268, 42.283792)"><g><path d="M 4.640625 0.21875 C 4.109375 0.21875 3.601562 0.144531 3.125 0 C 2.65625 -0.15625 2.242188 -0.378906 1.890625 -0.671875 C 1.546875 -0.972656 1.269531 -1.335938 1.0625 -1.765625 C 0.863281 -2.191406 0.765625 -2.6875 0.765625 -3.25 L 0.765625 -3.296875 C 0.765625 -3.910156 0.875 -4.441406 1.09375 -4.890625 C 1.320312 -5.335938 1.632812 -5.707031 2.03125 -6 C 2.4375 -6.300781 2.914062 -6.523438 3.46875 -6.671875 C 4.019531 -6.816406 4.632812 -6.890625 5.3125 -6.890625 C 5.894531 -6.890625 6.398438 -6.847656 6.828125 -6.765625 C 7.253906 -6.679688 7.671875 -6.570312 8.078125 -6.4375 L 8.078125 -6.625 C 8.078125 -7.300781 7.875 -7.8125 7.46875 -8.15625 C 7.0625 -8.507812 6.457031 -8.6875 5.65625 -8.6875 C 5.03125 -8.6875 4.484375 -8.632812 4.015625 -8.53125 C 3.546875 -8.425781 3.050781 -8.273438 2.53125 -8.078125 L 1.734375 -10.53125 C 2.347656 -10.789062 2.992188 -11.003906 3.671875 -11.171875 C 4.347656 -11.347656 5.164062 -11.4375 6.125 -11.4375 C 7.007812 -11.4375 7.765625 -11.328125 8.390625 -11.109375 C 9.015625 -10.890625 9.53125 -10.578125 9.9375 -10.171875 C 10.351562 -9.742188 10.660156 -9.222656 10.859375 -8.609375 C 11.054688 -8.003906 11.15625 -7.320312 11.15625 -6.5625 L 11.15625 0 L 8.0625 0 L 8.0625 -1.21875 C 7.664062 -0.78125 7.191406 -0.429688 6.640625 -0.171875 C 6.097656 0.0859375 5.429688 0.21875 4.640625 0.21875 Z M 5.609375 -2 C 6.367188 -2 6.976562 -2.179688 7.4375 -2.546875 C 7.894531 -2.910156 8.125 -3.390625 8.125 -3.984375 L 8.125 -4.5625 C 7.84375 -4.6875 7.53125 -4.785156 7.1875 -4.859375 C 6.84375 -4.941406 6.472656 -4.984375 6.078125 -4.984375 C 5.390625 -4.984375 4.847656 -4.847656 4.453125 -4.578125 C 4.054688 -4.304688 3.859375 -3.921875 3.859375 -3.421875 L 3.859375 -3.375 C 3.859375 -2.9375 4.019531 -2.597656 4.34375 -2.359375 C 4.664062 -2.117188 5.085938 -2 5.609375 -2 Z M 5.609375 -2 "/></g></g></g><g clip-path="url(#a7184afd48)"><g clip-path="url(#2401b3dcf4)"><g transform="matrix(1, 0, 0, 1, 21, 26)"><g clip-path="url(#72d8b8ead0)"><g clip-path="url(#84591af130)"><g clip-path="url(#481d35c987)"><path fill="#219ebc" d="M 0.8125 0.257812 L 23.300781 0.257812 L 23.300781 22.742188 L 0.8125 22.742188 Z M 0.8125 0.257812 " fill-opacity="1" fill-rule="nonzero"/></g></g></g></g></g></g><g fill="#219ebc" fill-opacity="1"><g transform="translate(157.372928, 56.710482)"><g><path d="M 2.453125 1.859375 C 0.804688 1.710938 -0.015625 0.867188 -0.015625 -0.671875 C -0.015625 -1.585938 0.269531 -2.554688 0.84375 -3.578125 C 1.1875 -4.191406 1.613281 -4.789062 2.125 -5.375 C 2.644531 -5.96875 3.210938 -6.5 3.828125 -6.96875 C 4.441406 -7.445312 5.070312 -7.820312 5.71875 -8.09375 C 6.363281 -8.375 6.984375 -8.515625 7.578125 -8.515625 C 8.628906 -8.515625 9.15625 -8.128906 9.15625 -7.359375 C 9.15625 -6.828125 8.992188 -6.242188 8.671875 -5.609375 C 8.359375 -4.972656 8.035156 -4.566406 7.703125 -4.390625 C 7.671875 -4.378906 7.632812 -4.375 7.59375 -4.375 C 7.5625 -4.375 7.546875 -4.382812 7.546875 -4.40625 L 8.078125 -5.28125 C 8.429688 -5.875 8.609375 -6.394531 8.609375 -6.84375 C 8.609375 -7.164062 8.523438 -7.46875 8.359375 -7.75 C 8.191406 -8.039062 7.890625 -8.1875 7.453125 -8.1875 C 6.921875 -8.1875 6.375 -8.035156 5.8125 -7.734375 C 5.25 -7.429688 4.707031 -7.035156 4.1875 -6.546875 C 3.664062 -6.054688 3.191406 -5.515625 2.765625 -4.921875 C 2.335938 -4.335938 2 -3.757812 1.75 -3.1875 C 1.195312 -1.957031 0.921875 -0.960938 0.921875 -0.203125 C 0.921875 0.929688 1.503906 1.5 2.671875 1.5 C 3.773438 1.5 5.273438 0.785156 7.171875 -0.640625 C 7.609375 -0.972656 8.171875 -1.4375 8.859375 -2.03125 C 9.546875 -2.625 10.351562 -3.347656 11.28125 -4.203125 C 11.15625 -4.191406 10.992188 -4.175781 10.796875 -4.15625 C 10.609375 -4.144531 10.390625 -4.117188 10.140625 -4.078125 C 10.023438 -4.054688 9.921875 -4.035156 9.828125 -4.015625 C 9.734375 -4.003906 9.644531 -4 9.5625 -4 C 9.34375 -4.019531 9.25 -4.070312 9.28125 -4.15625 C 9.320312 -4.550781 9.523438 -4.75 9.890625 -4.75 C 10.222656 -4.707031 10.535156 -4.675781 10.828125 -4.65625 C 11.117188 -4.632812 11.398438 -4.625 11.671875 -4.625 C 12.085938 -5 12.640625 -5.53125 13.328125 -6.21875 C 14.015625 -6.90625 14.832031 -7.753906 15.78125 -8.765625 C 17 -10.046875 17.742188 -10.6875 18.015625 -10.6875 C 18.128906 -10.6875 18.1875 -10.582031 18.1875 -10.375 C 18.1875 -10.289062 18.175781 -10.179688 18.15625 -10.046875 C 18.132812 -9.921875 18.101562 -9.773438 18.0625 -9.609375 C 17.957031 -9.203125 17.847656 -8.957031 17.734375 -8.875 C 17.398438 -8.632812 17.125 -8.332031 16.90625 -7.96875 C 16.6875 -7.601562 16.460938 -7.195312 16.234375 -6.75 C 16.015625 -6.289062 15.8125 -5.878906 15.625 -5.515625 C 15.4375 -5.160156 15.269531 -4.847656 15.125 -4.578125 L 16.671875 -4.609375 C 17.054688 -4.609375 17.25 -4.582031 17.25 -4.53125 C 17.25 -4.507812 17.238281 -4.488281 17.21875 -4.46875 C 17.03125 -4.351562 16.257812 -4.25 14.90625 -4.15625 C 13.914062 -2.226562 13.421875 -0.90625 13.421875 -0.1875 C 13.421875 0.300781 13.578125 0.546875 13.890625 0.546875 C 14.003906 0.546875 14.15625 0.46875 14.34375 0.3125 C 14.507812 0.175781 14.613281 0.109375 14.65625 0.109375 C 14.65625 0.0859375 14.660156 0.0820312 14.671875 0.09375 C 14.679688 0.101562 14.675781 0.109375 14.65625 0.109375 C 14.601562 0.304688 14.445312 0.476562 14.1875 0.625 C 13.925781 0.78125 13.648438 0.859375 13.359375 0.859375 C 13.097656 0.859375 12.921875 0.773438 12.828125 0.609375 C 12.742188 0.441406 12.703125 0.207031 12.703125 -0.09375 C 12.703125 -1.164062 13.113281 -2.535156 13.9375 -4.203125 L 12.015625 -4.15625 C 10.585938 -2.757812 9.15625 -1.535156 7.71875 -0.484375 C 5.425781 1.179688 3.671875 1.960938 2.453125 1.859375 Z M 14.078125 -4.625 C 14.210938 -4.863281 14.46875 -5.304688 14.84375 -5.953125 C 15.226562 -6.597656 15.75 -7.4375 16.40625 -8.46875 L 12.3125 -4.640625 Z M 14.078125 -4.625 "/></g></g></g><g fill="#219ebc" fill-opacity="1"><g transform="translate(176.110982, 56.710482)"><g><path d="M -0.171875 3.28125 C -0.492188 3.28125 -0.765625 3.144531 -0.984375 2.875 C -1.210938 2.613281 -1.332031 2.328125 -1.34375 2.015625 C -1.3125 1.890625 -1.265625 1.828125 -1.203125 1.828125 C -1.140625 1.828125 -1.101562 1.90625 -1.09375 2.0625 C -1.082031 2.226562 -0.992188 2.394531 -0.828125 2.5625 C -0.671875 2.71875 -0.519531 2.796875 -0.375 2.796875 C 0.25 2.796875 0.898438 2.394531 1.578125 1.59375 C 1.828125 1.3125 2.082031 0.972656 2.34375 0.578125 C 2.601562 0.191406 2.851562 -0.242188 3.09375 -0.734375 L 3.90625 -2.3125 L 2.703125 -1.109375 C 2.328125 -0.734375 2.003906 -0.453125 1.734375 -0.265625 C 1.460938 -0.0859375 1.253906 0 1.109375 0 C 0.847656 0 0.585938 -0.09375 0.328125 -0.28125 C 0.078125 -0.46875 -0.0625 -0.679688 -0.09375 -0.921875 C -0.195312 -1.742188 0.316406 -2.722656 1.453125 -3.859375 C 2.597656 -4.972656 3.613281 -5.53125 4.5 -5.53125 C 4.75 -5.53125 4.941406 -5.472656 5.078125 -5.359375 C 5.148438 -5.296875 5.207031 -5.195312 5.25 -5.0625 C 5.289062 -4.9375 5.320312 -4.875 5.34375 -4.875 C 5.382812 -4.875 5.421875 -4.878906 5.453125 -4.890625 C 5.484375 -4.910156 5.519531 -4.921875 5.5625 -4.921875 C 5.695312 -4.921875 5.8125 -4.875 5.90625 -4.78125 C 6 -4.6875 6.03125 -4.585938 6 -4.484375 C 5.988281 -4.390625 5.832031 -4.101562 5.53125 -3.625 C 5.34375 -3.3125 5.125 -2.925781 4.875 -2.46875 C 4.625 -2.019531 4.363281 -1.550781 4.09375 -1.0625 C 3.820312 -0.570312 3.554688 -0.117188 3.296875 0.296875 C 3.046875 0.710938 2.820312 1.054688 2.625 1.328125 C 1.644531 2.628906 0.710938 3.28125 -0.171875 3.28125 Z M 0.953125 -0.375 C 1.578125 -0.375 2.421875 -1.046875 3.484375 -2.390625 L 5.171875 -4.734375 C 5.109375 -4.878906 4.976562 -4.953125 4.78125 -4.953125 C 4.113281 -4.953125 3.226562 -4.429688 2.125 -3.390625 C 0.976562 -2.304688 0.460938 -1.425781 0.578125 -0.75 C 0.628906 -0.5 0.753906 -0.375 0.953125 -0.375 Z M 0.953125 -0.375 "/></g></g></g><g fill="#219ebc" fill-opacity="1"><g transform="translate(184.457075, 56.710482)"><g><path d="M 0.8125 0.203125 C 0.46875 0.203125 0.160156 0.09375 -0.109375 -0.125 C -0.390625 -0.34375 -0.53125 -0.628906 -0.53125 -0.984375 C -0.53125 -1.742188 -0.0664062 -2.609375 0.859375 -3.578125 C 1.804688 -4.554688 2.65625 -5.046875 3.40625 -5.046875 C 3.644531 -5.046875 3.84375 -4.976562 4 -4.84375 C 4.15625 -4.71875 4.234375 -4.554688 4.234375 -4.359375 C 4.234375 -3.765625 3.757812 -3.179688 2.8125 -2.609375 C 1.96875 -2.097656 1.257812 -1.84375 0.6875 -1.84375 C 0.601562 -1.84375 0.53125 -1.851562 0.46875 -1.875 C 0.300781 -1.582031 0.21875 -1.273438 0.21875 -0.953125 C 0.21875 -0.398438 0.476562 -0.125 1 -0.125 C 1.539062 -0.125 2.226562 -0.484375 3.0625 -1.203125 C 3.71875 -1.722656 4.273438 -2.273438 4.734375 -2.859375 C 4.828125 -2.984375 4.910156 -3.046875 4.984375 -3.046875 C 5.046875 -3.046875 5.078125 -3.015625 5.078125 -2.953125 C 5.078125 -2.890625 5.035156 -2.800781 4.953125 -2.6875 C 4.648438 -2.289062 4.328125 -1.925781 3.984375 -1.59375 C 3.648438 -1.269531 3.285156 -0.96875 2.890625 -0.6875 C 2.066406 -0.09375 1.375 0.203125 0.8125 0.203125 Z M 0.90625 -2.1875 C 1.3125 -2.1875 1.84375 -2.390625 2.5 -2.796875 C 2.707031 -2.941406 2.914062 -3.109375 3.125 -3.296875 C 3.332031 -3.484375 3.503906 -3.671875 3.640625 -3.859375 C 3.773438 -4.054688 3.84375 -4.226562 3.84375 -4.375 C 3.84375 -4.519531 3.726562 -4.59375 3.5 -4.59375 C 3.175781 -4.59375 2.726562 -4.351562 2.15625 -3.875 C 1.882812 -3.632812 1.617188 -3.375 1.359375 -3.09375 C 1.097656 -2.820312 0.878906 -2.53125 0.703125 -2.21875 C 0.765625 -2.195312 0.832031 -2.1875 0.90625 -2.1875 Z M 0.90625 -2.1875 "/></g></g></g><g fill="#219ebc" fill-opacity="1"><g transform="translate(190.996573, 56.710482)"><g><path d="M 4.078125 0.03125 C 3.785156 0.03125 3.582031 -0.0507812 3.46875 -0.21875 C 3.351562 -0.382812 3.296875 -0.585938 3.296875 -0.828125 C 3.296875 -1.453125 3.507812 -2.113281 3.9375 -2.8125 L 4.953125 -4.46875 C 4.234375 -3.9375 3.515625 -3.273438 2.796875 -2.484375 C 2.609375 -2.265625 2.394531 -2.007812 2.15625 -1.71875 C 1.914062 -1.4375 1.648438 -1.109375 1.359375 -0.734375 C 0.972656 -0.234375 0.742188 0.015625 0.671875 0.015625 C 0.523438 0.015625 0.398438 -0.0507812 0.296875 -0.1875 C 0.203125 -0.320312 0.15625 -0.441406 0.15625 -0.546875 C 0.15625 -0.628906 0.179688 -0.785156 0.234375 -1.015625 C 0.285156 -1.242188 0.351562 -1.441406 0.4375 -1.609375 C 0.507812 -1.796875 0.582031 -1.972656 0.65625 -2.140625 C 0.738281 -2.316406 0.816406 -2.492188 0.890625 -2.671875 L -0.0625 -1.65625 C -0.0820312 -1.632812 -0.144531 -1.570312 -0.25 -1.46875 C -0.363281 -1.363281 -0.453125 -1.3125 -0.515625 -1.3125 C -0.566406 -1.3125 -0.59375 -1.347656 -0.59375 -1.421875 C -0.59375 -1.441406 -0.582031 -1.46875 -0.5625 -1.5 C -0.550781 -1.539062 -0.519531 -1.585938 -0.46875 -1.640625 C -0.300781 -1.804688 -0.132812 -1.976562 0.03125 -2.15625 C 0.195312 -2.332031 0.375 -2.539062 0.5625 -2.78125 C 0.65625 -2.894531 0.796875 -3.070312 0.984375 -3.3125 C 1.179688 -3.550781 1.394531 -3.804688 1.625 -4.078125 C 1.851562 -4.359375 2.066406 -4.617188 2.265625 -4.859375 C 2.316406 -4.929688 2.375 -4.976562 2.4375 -5 C 2.507812 -5.03125 2.554688 -5.046875 2.578125 -5.046875 C 2.859375 -5.046875 3 -4.9375 3 -4.71875 C 3 -4.65625 2.984375 -4.59375 2.953125 -4.53125 C 1.992188 -3.207031 1.421875 -2.195312 1.234375 -1.5 C 2.460938 -2.738281 3.453125 -3.671875 4.203125 -4.296875 C 4.960938 -4.921875 5.5 -5.234375 5.8125 -5.234375 C 5.988281 -5.234375 6.117188 -5.203125 6.203125 -5.140625 C 6.296875 -5.085938 6.34375 -4.988281 6.34375 -4.84375 C 6.34375 -4.789062 6.335938 -4.75 6.328125 -4.71875 C 6.296875 -4.644531 6.078125 -4.34375 5.671875 -3.8125 C 5.429688 -3.519531 5.21875 -3.25 5.03125 -3 C 4.84375 -2.757812 4.691406 -2.546875 4.578125 -2.359375 C 4.378906 -2.066406 4.234375 -1.789062 4.140625 -1.53125 C 4.046875 -1.269531 4 -1.046875 4 -0.859375 C 4 -0.785156 4.007812 -0.695312 4.03125 -0.59375 C 4.050781 -0.488281 4.113281 -0.4375 4.21875 -0.4375 C 4.46875 -0.4375 4.851562 -0.648438 5.375 -1.078125 C 5.613281 -1.285156 5.835938 -1.5 6.046875 -1.71875 C 6.265625 -1.9375 6.472656 -2.148438 6.671875 -2.359375 C 6.710938 -2.398438 6.78125 -2.484375 6.875 -2.609375 C 6.96875 -2.734375 7.023438 -2.796875 7.046875 -2.796875 C 7.085938 -2.796875 7.109375 -2.753906 7.109375 -2.671875 C 7.109375 -2.628906 7.082031 -2.554688 7.03125 -2.453125 C 6.988281 -2.347656 6.941406 -2.269531 6.890625 -2.21875 C 6.773438 -2.082031 6.601562 -1.890625 6.375 -1.640625 C 6.144531 -1.398438 5.882812 -1.148438 5.59375 -0.890625 C 5.3125 -0.640625 5.035156 -0.421875 4.765625 -0.234375 C 4.503906 -0.0546875 4.273438 0.03125 4.078125 0.03125 Z M 4.078125 0.03125 "/></g></g></g><g fill="#219ebc" fill-opacity="1"><g transform="translate(199.870266, 56.710482)"><g><path d="M 1.21875 0.203125 C 0.875 0.203125 0.5625 0.09375 0.28125 -0.125 C 0.0078125 -0.34375 -0.125 -0.628906 -0.125 -0.984375 C -0.125 -1.742188 0.335938 -2.609375 1.265625 -3.578125 C 2.210938 -4.554688 3.054688 -5.046875 3.796875 -5.046875 C 4.054688 -5.046875 4.257812 -4.976562 4.40625 -4.84375 C 4.5625 -4.71875 4.640625 -4.554688 4.640625 -4.359375 C 4.640625 -4.097656 4.570312 -3.851562 4.4375 -3.625 C 4.289062 -3.351562 4.078125 -3.21875 3.796875 -3.21875 C 3.523438 -3.21875 3.390625 -3.300781 3.390625 -3.46875 C 3.390625 -3.582031 3.457031 -3.757812 3.59375 -4 C 3.738281 -4.238281 3.8125 -4.363281 3.8125 -4.375 C 3.8125 -4.394531 3.796875 -4.40625 3.765625 -4.40625 C 3.472656 -4.375 3.0625 -4.15625 2.53125 -3.75 C 2.289062 -3.570312 2.082031 -3.398438 1.90625 -3.234375 C 1.726562 -3.078125 1.585938 -2.925781 1.484375 -2.78125 L 0.859375 -1.875 C 0.796875 -1.769531 0.726562 -1.597656 0.65625 -1.359375 C 0.59375 -1.128906 0.5625 -0.957031 0.5625 -0.84375 C 0.5625 -0.632812 0.628906 -0.457031 0.765625 -0.3125 C 0.910156 -0.175781 1.097656 -0.109375 1.328125 -0.109375 C 1.859375 -0.109375 2.5625 -0.457031 3.4375 -1.15625 C 4.132812 -1.707031 4.695312 -2.265625 5.125 -2.828125 C 5.175781 -2.890625 5.242188 -2.921875 5.328125 -2.921875 C 5.398438 -2.921875 5.4375 -2.898438 5.4375 -2.859375 C 5.4375 -2.828125 5.410156 -2.773438 5.359375 -2.703125 C 4.765625 -1.921875 4.078125 -1.25 3.296875 -0.6875 C 2.453125 -0.09375 1.757812 0.203125 1.21875 0.203125 Z M 1.21875 0.203125 "/></g></g></g><g fill="#219ebc" fill-opacity="1"><g transform="translate(206.825443, 56.710482)"><g><path d="M 0.375 3.28125 C 0.03125 3.28125 -0.269531 3.132812 -0.53125 2.84375 C -0.78125 2.539062 -0.898438 2.210938 -0.890625 1.859375 C -0.765625 2.015625 -0.597656 2.195312 -0.390625 2.40625 C -0.109375 2.675781 0.164062 2.8125 0.4375 2.8125 C 1.039062 2.8125 1.691406 2.328125 2.390625 1.359375 C 2.640625 1.015625 2.894531 0.613281 3.15625 0.15625 C 3.414062 -0.289062 3.664062 -0.789062 3.90625 -1.34375 L 4.5 -2.8125 L 2.15625 -0.96875 C 1.4375 -0.40625 0.859375 -0.125 0.421875 -0.125 C 0.179688 -0.125 -0.00390625 -0.207031 -0.140625 -0.375 C -0.285156 -0.550781 -0.359375 -0.726562 -0.359375 -0.90625 C -0.359375 -1.363281 0.0351562 -2.117188 0.828125 -3.171875 C 1.617188 -4.222656 2.210938 -4.75 2.609375 -4.75 C 2.929688 -4.75 3.09375 -4.625 3.09375 -4.375 C 3.09375 -4.28125 2.617188 -3.726562 1.671875 -2.71875 C 0.734375 -1.71875 0.265625 -1.039062 0.265625 -0.6875 C 0.265625 -0.550781 0.359375 -0.484375 0.546875 -0.484375 C 0.890625 -0.484375 1.628906 -0.925781 2.765625 -1.8125 C 3.234375 -2.175781 3.648438 -2.515625 4.015625 -2.828125 C 4.378906 -3.140625 4.679688 -3.414062 4.921875 -3.65625 C 5.003906 -3.757812 5.085938 -3.863281 5.171875 -3.96875 C 5.265625 -4.070312 5.347656 -4.175781 5.421875 -4.28125 C 5.617188 -4.519531 5.820312 -4.640625 6.03125 -4.640625 C 6.3125 -4.640625 6.453125 -4.519531 6.453125 -4.28125 C 6.453125 -4.238281 6.226562 -3.890625 5.78125 -3.234375 C 5.550781 -2.867188 5.363281 -2.585938 5.21875 -2.390625 C 5.082031 -2.191406 5.003906 -2.066406 4.984375 -2.015625 C 4.648438 -1.378906 4.144531 -0.445312 3.46875 0.78125 C 2.4375 2.445312 1.40625 3.28125 0.375 3.28125 Z M 0.375 3.28125 "/></g></g></g></svg>