<svg xmlns="http://www.w3.org/2000/svg" xmlns:xlink="http://www.w3.org/1999/xlink" width="300" zoomAndPan="magnify" viewBox="0 0 224.87999 74.999997" height="100" preserveAspectRatio="xMidYMid meet" version="1.0"><defs><filter x="0%" y="0%" width="100%" height="100%" id="3a88ffc46b"><feColorMatrix values="0 0 0 0 1 0 0 0 0 1 0 0 0 0 1 0 0 0 1 0" color-interpolation-filters="sRGB"/></filter><g/><clipPath id="02f0287695"><path d="M 7.496094 11.644531 L 58 11.644531 L 58 58.117188 L 7.496094 58.117188 Z M 7.496094 11.644531 " clip-rule="nonzero"/></clipPath><clipPath id="61d3048cc3"><path d="M 20.484375 0.0195312 L 224.761719 0.0195312 L 224.761719 74.980469 L 20.484375 74.980469 Z M 20.484375 0.0195312 " clip-rule="nonzero"/></clipPath><clipPath id="afa51744ce"><path d="M 0.484375 0.0195312 L 204.761719 0.0195312 L 204.761719 74.980469 L 0.484375 74.980469 Z M 0.484375 0.0195312 " clip-rule="nonzero"/></clipPath><clipPath id="3555fe6c5d"><path d="M 0.488281 0.0195312 L 204.761719 0.0195312 L 204.761719 74.980469 L 0.488281 74.980469 Z M 0.488281 0.0195312 " clip-rule="nonzero"/></clipPath><linearGradient x1="-56.271999" gradientTransform="matrix(0.749204, 0, 0, 0.751932, 42.648415, 20.875873)" y1="19" x2="216.378369" gradientUnits="userSpaceOnUse" y2="19" id="bc4fa40f64"><stop stop-opacity="1" stop-color="rgb(100%, 87.059021%, 34.899902%)" offset="0"/><stop stop-opacity="1" stop-color="rgb(100%, 87.059021%, 34.899902%)" offset="0.125"/><stop stop-opacity="1" stop-color="rgb(100%, 87.059021%, 34.899902%)" offset="0.1875"/><stop stop-opacity="1" stop-color="rgb(100%, 87.059021%, 34.899902%)" offset="0.203125"/><stop stop-opacity="1" stop-color="rgb(100%, 86.967468%, 34.884644%)" offset="0.210938"/><stop stop-opacity="1" stop-color="rgb(100%, 86.721802%, 34.846497%)" offset="0.21875"/><stop stop-opacity="1" stop-color="rgb(100%, 86.410522%, 34.797668%)" offset="0.226562"/><stop stop-opacity="1" stop-color="rgb(100%, 86.099243%, 34.750366%)" offset="0.234375"/><stop stop-opacity="1" stop-color="rgb(100%, 85.787964%, 34.701538%)" offset="0.242188"/><stop stop-opacity="1" stop-color="rgb(100%, 85.476685%, 34.65271%)" offset="0.25"/><stop stop-opacity="1" stop-color="rgb(100%, 85.165405%, 34.603882%)" offset="0.257812"/><stop stop-opacity="1" stop-color="rgb(100%, 84.854126%, 34.55658%)" offset="0.265625"/><stop stop-opacity="1" stop-color="rgb(100%, 84.542847%, 34.507751%)" offset="0.273438"/><stop stop-opacity="1" stop-color="rgb(100%, 84.231567%, 34.458923%)" offset="0.28125"/><stop stop-opacity="1" stop-color="rgb(100%, 83.920288%, 34.410095%)" offset="0.289063"/><stop stop-opacity="1" stop-color="rgb(100%, 83.609009%, 34.362793%)" offset="0.296875"/><stop stop-opacity="1" stop-color="rgb(100%, 83.297729%, 34.313965%)" offset="0.304688"/><stop stop-opacity="1" stop-color="rgb(100%, 82.98645%, 34.265137%)" offset="0.3125"/><stop stop-opacity="1" stop-color="rgb(100%, 82.675171%, 34.216309%)" offset="0.320313"/><stop stop-opacity="1" stop-color="rgb(100%, 82.363892%, 34.16748%)" offset="0.328125"/><stop stop-opacity="1" stop-color="rgb(100%, 82.052612%, 34.120178%)" offset="0.335938"/><stop stop-opacity="1" stop-color="rgb(100%, 81.741333%, 34.07135%)" offset="0.34375"/><stop stop-opacity="1" stop-color="rgb(100%, 81.428528%, 34.022522%)" offset="0.351563"/><stop stop-opacity="1" stop-color="rgb(100%, 81.117249%, 33.973694%)" offset="0.359375"/><stop stop-opacity="1" stop-color="rgb(100%, 80.805969%, 33.926392%)" offset="0.367188"/><stop stop-opacity="1" stop-color="rgb(100%, 80.49469%, 33.877563%)" offset="0.375"/><stop stop-opacity="1" stop-color="rgb(100%, 80.183411%, 33.828735%)" offset="0.382813"/><stop stop-opacity="1" stop-color="rgb(100%, 79.872131%, 33.779907%)" offset="0.390625"/><stop stop-opacity="1" stop-color="rgb(100%, 79.560852%, 33.732605%)" offset="0.398438"/><stop stop-opacity="1" stop-color="rgb(100%, 79.249573%, 33.683777%)" offset="0.40625"/><stop stop-opacity="1" stop-color="rgb(100%, 78.938293%, 33.634949%)" offset="0.414063"/><stop stop-opacity="1" stop-color="rgb(100%, 78.627014%, 33.586121%)" offset="0.421875"/><stop stop-opacity="1" stop-color="rgb(100%, 78.315735%, 33.538818%)" offset="0.429688"/><stop stop-opacity="1" stop-color="rgb(100%, 78.004456%, 33.48999%)" offset="0.4375"/><stop stop-opacity="1" stop-color="rgb(100%, 77.693176%, 33.441162%)" offset="0.445312"/><stop stop-opacity="1" stop-color="rgb(100%, 77.381897%, 33.392334%)" offset="0.453125"/><stop stop-opacity="1" stop-color="rgb(100%, 77.070618%, 33.345032%)" offset="0.460938"/><stop stop-opacity="1" stop-color="rgb(100%, 76.759338%, 33.296204%)" offset="0.46875"/><stop stop-opacity="1" stop-color="rgb(100%, 76.448059%, 33.247375%)" offset="0.476563"/><stop stop-opacity="1" stop-color="rgb(100%, 76.13678%, 33.198547%)" offset="0.484375"/><stop stop-opacity="1" stop-color="rgb(100%, 75.8255%, 33.151245%)" offset="0.492188"/><stop stop-opacity="1" stop-color="rgb(100%, 75.514221%, 33.102417%)" offset="0.5"/><stop stop-opacity="1" stop-color="rgb(100%, 75.201416%, 33.053589%)" offset="0.507812"/><stop stop-opacity="1" stop-color="rgb(100%, 74.890137%, 33.004761%)" offset="0.515625"/><stop stop-opacity="1" stop-color="rgb(100%, 74.578857%, 32.957458%)" offset="0.523438"/><stop stop-opacity="1" stop-color="rgb(100%, 74.267578%, 32.90863%)" offset="0.53125"/><stop stop-opacity="1" stop-color="rgb(100%, 73.956299%, 32.859802%)" offset="0.539062"/><stop stop-opacity="1" stop-color="rgb(100%, 73.64502%, 32.810974%)" offset="0.546875"/><stop stop-opacity="1" stop-color="rgb(100%, 73.33374%, 32.763672%)" offset="0.554688"/><stop stop-opacity="1" stop-color="rgb(100%, 73.022461%, 32.714844%)" offset="0.5625"/><stop stop-opacity="1" stop-color="rgb(100%, 72.711182%, 32.666016%)" offset="0.570313"/><stop stop-opacity="1" stop-color="rgb(100%, 72.399902%, 32.617188%)" offset="0.578125"/><stop stop-opacity="1" stop-color="rgb(100%, 72.088623%, 32.569885%)" offset="0.585938"/><stop stop-opacity="1" stop-color="rgb(100%, 71.777344%, 32.521057%)" offset="0.59375"/><stop stop-opacity="1" stop-color="rgb(100%, 71.466064%, 32.472229%)" offset="0.601562"/><stop stop-opacity="1" stop-color="rgb(100%, 71.154785%, 32.423401%)" offset="0.609375"/><stop stop-opacity="1" stop-color="rgb(100%, 70.843506%, 32.376099%)" offset="0.617188"/><stop stop-opacity="1" stop-color="rgb(100%, 70.532227%, 32.327271%)" offset="0.625"/><stop stop-opacity="1" stop-color="rgb(100%, 70.220947%, 32.278442%)" offset="0.632813"/><stop stop-opacity="1" stop-color="rgb(100%, 69.909668%, 32.229614%)" offset="0.640625"/><stop stop-opacity="1" stop-color="rgb(100%, 69.598389%, 32.180786%)" offset="0.648438"/><stop stop-opacity="1" stop-color="rgb(100%, 69.287109%, 32.133484%)" offset="0.65625"/><stop stop-opacity="1" stop-color="rgb(100%, 68.97583%, 32.084656%)" offset="0.664063"/><stop stop-opacity="1" stop-color="rgb(100%, 68.663025%, 32.035828%)" offset="0.671875"/><stop stop-opacity="1" stop-color="rgb(100%, 68.351746%, 31.987%)" offset="0.679688"/><stop stop-opacity="1" stop-color="rgb(100%, 68.040466%, 31.939697%)" offset="0.6875"/><stop stop-opacity="1" stop-color="rgb(100%, 67.729187%, 31.890869%)" offset="0.695313"/><stop stop-opacity="1" stop-color="rgb(100%, 67.417908%, 31.842041%)" offset="0.703125"/><stop stop-opacity="1" stop-color="rgb(100%, 67.106628%, 31.793213%)" offset="0.710938"/><stop stop-opacity="1" stop-color="rgb(100%, 66.795349%, 31.745911%)" offset="0.71875"/><stop stop-opacity="1" stop-color="rgb(100%, 66.48407%, 31.697083%)" offset="0.726562"/><stop stop-opacity="1" stop-color="rgb(100%, 66.172791%, 31.648254%)" offset="0.734375"/><stop stop-opacity="1" stop-color="rgb(100%, 65.861511%, 31.599426%)" offset="0.742188"/><stop stop-opacity="1" stop-color="rgb(100%, 65.550232%, 31.552124%)" offset="0.75"/><stop stop-opacity="1" stop-color="rgb(100%, 65.238953%, 31.503296%)" offset="0.757813"/><stop stop-opacity="1" stop-color="rgb(100%, 64.927673%, 31.454468%)" offset="0.765625"/><stop stop-opacity="1" stop-color="rgb(100%, 64.616394%, 31.40564%)" offset="0.773438"/><stop stop-opacity="1" stop-color="rgb(100%, 64.305115%, 31.358337%)" offset="0.78125"/><stop stop-opacity="1" stop-color="rgb(100%, 63.993835%, 31.309509%)" offset="0.789063"/><stop stop-opacity="1" stop-color="rgb(100%, 63.682556%, 31.260681%)" offset="0.796875"/><stop stop-opacity="1" stop-color="rgb(100%, 63.371277%, 31.211853%)" offset="0.804688"/><stop stop-opacity="1" stop-color="rgb(100%, 63.059998%, 31.164551%)" offset="0.8125"/><stop stop-opacity="1" stop-color="rgb(100%, 62.748718%, 31.115723%)" offset="0.820312"/><stop stop-opacity="1" stop-color="rgb(100%, 62.435913%, 31.066895%)" offset="0.828125"/><stop stop-opacity="1" stop-color="rgb(100%, 62.124634%, 31.018066%)" offset="0.835938"/><stop stop-opacity="1" stop-color="rgb(100%, 61.813354%, 30.970764%)" offset="0.84375"/><stop stop-opacity="1" stop-color="rgb(100%, 61.502075%, 30.921936%)" offset="0.851562"/><stop stop-opacity="1" stop-color="rgb(100%, 61.190796%, 30.873108%)" offset="0.859375"/><stop stop-opacity="1" stop-color="rgb(100%, 60.879517%, 30.82428%)" offset="0.867188"/><stop stop-opacity="1" stop-color="rgb(100%, 60.568237%, 30.776978%)" offset="0.875"/><stop stop-opacity="1" stop-color="rgb(100%, 60.256958%, 30.728149%)" offset="0.882813"/><stop stop-opacity="1" stop-color="rgb(100%, 59.945679%, 30.679321%)" offset="0.890625"/><stop stop-opacity="1" stop-color="rgb(100%, 59.634399%, 30.630493%)" offset="0.898438"/><stop stop-opacity="1" stop-color="rgb(100%, 59.32312%, 30.583191%)" offset="0.90625"/><stop stop-opacity="1" stop-color="rgb(100%, 59.011841%, 30.534363%)" offset="0.914063"/><stop stop-opacity="1" stop-color="rgb(100%, 58.700562%, 30.485535%)" offset="0.921875"/><stop stop-opacity="1" stop-color="rgb(100%, 58.389282%, 30.436707%)" offset="0.929688"/><stop stop-opacity="1" stop-color="rgb(100%, 58.078003%, 30.389404%)" offset="0.9375"/><stop stop-opacity="1" stop-color="rgb(100%, 57.766724%, 30.340576%)" offset="0.945313"/><stop stop-opacity="1" stop-color="rgb(100%, 57.455444%, 30.291748%)" offset="0.953125"/><stop stop-opacity="1" stop-color="rgb(100%, 57.144165%, 30.24292%)" offset="0.960938"/><stop stop-opacity="1" stop-color="rgb(100%, 56.922913%, 30.209351%)" offset="0.96875"/><stop stop-opacity="1" stop-color="rgb(100%, 56.858826%, 30.198669%)" offset="1"/></linearGradient><clipPath id="2e43c8cf93"><rect x="0" width="205" y="0" height="75"/></clipPath><clipPath id="06284cf1e1"><path d="M 0.484375 0.0195312 L 204.761719 0.0195312 L 204.761719 74.980469 L 0.484375 74.980469 Z M 0.484375 0.0195312 " clip-rule="nonzero"/></clipPath><clipPath id="1fe0da2192"><rect x="0" width="205" y="0" height="75"/></clipPath><clipPath id="60df233ae2"><rect x="0" width="205" y="0" height="75"/></clipPath><mask id="bac4aa13a7"><g filter="url(#3a88ffc46b)"><g transform="matrix(1, 0, 0, 1, 0.000000000000003553, -0.000000000000000847)"><g clip-path="url(#60df233ae2)"><g clip-path="url(#06284cf1e1)"><g transform="matrix(1, 0, 0, 1, 0.000000000000003553, -0.000000000000000847)"><g clip-path="url(#1fe0da2192)"><g fill="#000000" fill-opacity="1"><g transform="translate(42.461015, 42.283792)"><g><path d="M 7.03125 0.21875 C 5.90625 0.21875 4.800781 0.0234375 3.71875 -0.359375 C 2.632812 -0.753906 1.648438 -1.351562 0.765625 -2.15625 L 2.671875 -4.453125 C 3.347656 -3.898438 4.039062 -3.460938 4.75 -3.140625 C 5.46875 -2.816406 6.25 -2.65625 7.09375 -2.65625 C 7.757812 -2.65625 8.28125 -2.773438 8.65625 -3.015625 C 9.03125 -3.265625 9.21875 -3.609375 9.21875 -4.046875 L 9.21875 -4.09375 C 9.21875 -4.300781 9.175781 -4.484375 9.09375 -4.640625 C 9.019531 -4.804688 8.875 -4.957031 8.65625 -5.09375 C 8.4375 -5.238281 8.132812 -5.378906 7.75 -5.515625 C 7.363281 -5.660156 6.863281 -5.8125 6.25 -5.96875 C 5.5 -6.15625 4.820312 -6.359375 4.21875 -6.578125 C 3.613281 -6.804688 3.097656 -7.082031 2.671875 -7.40625 C 2.253906 -7.738281 1.925781 -8.148438 1.6875 -8.640625 C 1.457031 -9.140625 1.34375 -9.753906 1.34375 -10.484375 L 1.34375 -10.53125 C 1.34375 -11.195312 1.46875 -11.800781 1.71875 -12.34375 C 1.976562 -12.882812 2.335938 -13.351562 2.796875 -13.75 C 3.253906 -14.144531 3.796875 -14.445312 4.421875 -14.65625 C 5.054688 -14.875 5.753906 -14.984375 6.515625 -14.984375 C 7.597656 -14.984375 8.59375 -14.816406 9.5 -14.484375 C 10.40625 -14.160156 11.238281 -13.695312 12 -13.09375 L 10.3125 -10.65625 C 9.65625 -11.101562 9.007812 -11.457031 8.375 -11.71875 C 7.738281 -11.976562 7.101562 -12.109375 6.46875 -12.109375 C 5.84375 -12.109375 5.367188 -11.984375 5.046875 -11.734375 C 4.734375 -11.492188 4.578125 -11.191406 4.578125 -10.828125 L 4.578125 -10.78125 C 4.578125 -10.539062 4.625 -10.332031 4.71875 -10.15625 C 4.8125 -9.976562 4.972656 -9.816406 5.203125 -9.671875 C 5.441406 -9.535156 5.769531 -9.40625 6.1875 -9.28125 C 6.601562 -9.15625 7.128906 -9.007812 7.765625 -8.84375 C 8.503906 -8.644531 9.164062 -8.421875 9.75 -8.171875 C 10.332031 -7.929688 10.820312 -7.632812 11.21875 -7.28125 C 11.625 -6.9375 11.929688 -6.53125 12.140625 -6.0625 C 12.347656 -5.601562 12.453125 -5.050781 12.453125 -4.40625 L 12.453125 -4.359375 C 12.453125 -3.628906 12.316406 -2.976562 12.046875 -2.40625 C 11.773438 -1.84375 11.398438 -1.367188 10.921875 -0.984375 C 10.441406 -0.597656 9.875 -0.300781 9.21875 -0.09375 C 8.5625 0.113281 7.832031 0.21875 7.03125 0.21875 Z M 7.03125 0.21875 "/></g></g></g><g fill="#000000" fill-opacity="1"><g transform="translate(55.953838, 42.283792)"><g><path d="M 1.4375 -11.3125 L 4.640625 -11.3125 L 4.640625 -9.6875 C 5.035156 -10.21875 5.507812 -10.65625 6.0625 -11 C 6.613281 -11.34375 7.3125 -11.515625 8.15625 -11.515625 C 8.820312 -11.515625 9.460938 -11.390625 10.078125 -11.140625 C 10.703125 -10.890625 11.253906 -10.515625 11.734375 -10.015625 C 12.210938 -9.515625 12.59375 -8.898438 12.875 -8.171875 C 13.164062 -7.453125 13.3125 -6.617188 13.3125 -5.671875 L 13.3125 -5.625 C 13.3125 -4.6875 13.164062 -3.851562 12.875 -3.125 C 12.59375 -2.40625 12.210938 -1.796875 11.734375 -1.296875 C 11.265625 -0.796875 10.71875 -0.414062 10.09375 -0.15625 C 9.476562 0.09375 8.832031 0.21875 8.15625 0.21875 C 7.300781 0.21875 6.59375 0.0507812 6.03125 -0.28125 C 5.476562 -0.625 5.015625 -1.023438 4.640625 -1.484375 L 4.640625 3.375 L 1.4375 3.375 Z M 7.34375 -2.515625 C 7.71875 -2.515625 8.070312 -2.585938 8.40625 -2.734375 C 8.738281 -2.878906 9.03125 -3.085938 9.28125 -3.359375 C 9.53125 -3.640625 9.726562 -3.96875 9.875 -4.34375 C 10.03125 -4.726562 10.109375 -5.15625 10.109375 -5.625 L 10.109375 -5.671875 C 10.109375 -6.140625 10.03125 -6.566406 9.875 -6.953125 C 9.726562 -7.335938 9.53125 -7.664062 9.28125 -7.9375 C 9.03125 -8.21875 8.738281 -8.429688 8.40625 -8.578125 C 8.070312 -8.722656 7.71875 -8.796875 7.34375 -8.796875 C 6.957031 -8.796875 6.597656 -8.722656 6.265625 -8.578125 C 5.941406 -8.429688 5.65625 -8.21875 5.40625 -7.9375 C 5.164062 -7.664062 4.96875 -7.335938 4.8125 -6.953125 C 4.664062 -6.566406 4.59375 -6.140625 4.59375 -5.671875 L 4.59375 -5.625 C 4.59375 -5.164062 4.664062 -4.742188 4.8125 -4.359375 C 4.96875 -3.972656 5.164062 -3.640625 5.40625 -3.359375 C 5.65625 -3.085938 5.941406 -2.878906 6.265625 -2.734375 C 6.597656 -2.585938 6.957031 -2.515625 7.34375 -2.515625 Z M 7.34375 -2.515625 "/></g></g></g><g fill="#000000" fill-opacity="1"><g transform="translate(70.184547, 42.283792)"><g><path d="M 6.984375 0.25 C 6.109375 0.25 5.296875 0.0976562 4.546875 -0.203125 C 3.804688 -0.503906 3.164062 -0.914062 2.625 -1.4375 C 2.082031 -1.96875 1.65625 -2.585938 1.34375 -3.296875 C 1.039062 -4.003906 0.890625 -4.769531 0.890625 -5.59375 L 0.890625 -5.625 C 0.890625 -6.445312 1.039062 -7.210938 1.34375 -7.921875 C 1.65625 -8.628906 2.082031 -9.25 2.625 -9.78125 C 3.175781 -10.320312 3.828125 -10.742188 4.578125 -11.046875 C 5.328125 -11.359375 6.144531 -11.515625 7.03125 -11.515625 C 7.894531 -11.515625 8.695312 -11.363281 9.4375 -11.0625 C 10.1875 -10.757812 10.832031 -10.34375 11.375 -9.8125 C 11.914062 -9.289062 12.34375 -8.671875 12.65625 -7.953125 C 12.96875 -7.242188 13.125 -6.484375 13.125 -5.671875 L 13.125 -5.625 C 13.125 -4.8125 12.96875 -4.050781 12.65625 -3.34375 C 12.34375 -2.632812 11.910156 -2.007812 11.359375 -1.46875 C 10.816406 -0.9375 10.171875 -0.515625 9.421875 -0.203125 C 8.679688 0.0976562 7.867188 0.25 6.984375 0.25 Z M 7.03125 -2.515625 C 7.488281 -2.515625 7.894531 -2.59375 8.25 -2.75 C 8.613281 -2.914062 8.921875 -3.140625 9.171875 -3.421875 C 9.429688 -3.703125 9.625 -4.023438 9.75 -4.390625 C 9.882812 -4.765625 9.953125 -5.164062 9.953125 -5.59375 L 9.953125 -5.625 C 9.953125 -6.050781 9.878906 -6.453125 9.734375 -6.828125 C 9.597656 -7.203125 9.394531 -7.53125 9.125 -7.8125 C 8.863281 -8.101562 8.550781 -8.332031 8.1875 -8.5 C 7.820312 -8.664062 7.421875 -8.75 6.984375 -8.75 C 6.515625 -8.75 6.097656 -8.664062 5.734375 -8.5 C 5.378906 -8.34375 5.078125 -8.125 4.828125 -7.84375 C 4.578125 -7.5625 4.382812 -7.234375 4.25 -6.859375 C 4.113281 -6.492188 4.046875 -6.097656 4.046875 -5.671875 L 4.046875 -5.625 C 4.046875 -5.207031 4.113281 -4.8125 4.25 -4.4375 C 4.394531 -4.0625 4.601562 -3.726562 4.875 -3.4375 C 5.144531 -3.15625 5.457031 -2.929688 5.8125 -2.765625 C 6.164062 -2.597656 6.570312 -2.515625 7.03125 -2.515625 Z M 7.03125 -2.515625 "/></g></g></g><g fill="#000000" fill-opacity="1"><g transform="translate(84.183351, 42.283792)"><g><path d="M 5.25 0.1875 C 4.757812 0.1875 4.3125 0.132812 3.90625 0.03125 C 3.507812 -0.0703125 3.164062 -0.253906 2.875 -0.515625 C 2.59375 -0.785156 2.367188 -1.132812 2.203125 -1.5625 C 2.046875 -2 1.96875 -2.546875 1.96875 -3.203125 L 1.96875 -8.5625 L 0.609375 -8.5625 L 0.609375 -11.3125 L 1.96875 -11.3125 L 1.96875 -14.203125 L 5.171875 -14.203125 L 5.171875 -11.3125 L 7.828125 -11.3125 L 7.828125 -8.5625 L 5.171875 -8.5625 L 5.171875 -3.734375 C 5.171875 -3.003906 5.515625 -2.640625 6.203125 -2.640625 C 6.765625 -2.640625 7.289062 -2.769531 7.78125 -3.03125 L 7.78125 -0.46875 C 7.445312 -0.269531 7.070312 -0.113281 6.65625 0 C 6.25 0.125 5.78125 0.1875 5.25 0.1875 Z M 5.25 0.1875 "/></g></g></g><g fill="#000000" fill-opacity="1"><g transform="translate(92.9326, 42.283792)"><g><path d="M 1.578125 -15.40625 L 4.78125 -15.40625 L 4.78125 0 L 1.578125 0 Z M 1.578125 -15.40625 "/></g></g></g><g fill="#000000" fill-opacity="1"><g transform="translate(99.299521, 42.283792)"><g><path d="M 1.5 -15.40625 L 4.875 -15.40625 L 4.875 -12.546875 L 1.5 -12.546875 Z M 1.578125 -11.3125 L 4.78125 -11.3125 L 4.78125 0 L 1.578125 0 Z M 1.578125 -11.3125 "/></g></g></g><g fill="#000000" fill-opacity="1"><g transform="translate(105.666442, 42.283792)"><g><path d="M 5.25 0.1875 C 4.757812 0.1875 4.3125 0.132812 3.90625 0.03125 C 3.507812 -0.0703125 3.164062 -0.253906 2.875 -0.515625 C 2.59375 -0.785156 2.367188 -1.132812 2.203125 -1.5625 C 2.046875 -2 1.96875 -2.546875 1.96875 -3.203125 L 1.96875 -8.5625 L 0.609375 -8.5625 L 0.609375 -11.3125 L 1.96875 -11.3125 L 1.96875 -14.203125 L 5.171875 -14.203125 L 5.171875 -11.3125 L 7.828125 -11.3125 L 7.828125 -8.5625 L 5.171875 -8.5625 L 5.171875 -3.734375 C 5.171875 -3.003906 5.515625 -2.640625 6.203125 -2.640625 C 6.765625 -2.640625 7.289062 -2.769531 7.78125 -3.03125 L 7.78125 -0.46875 C 7.445312 -0.269531 7.070312 -0.113281 6.65625 0 C 6.25 0.125 5.78125 0.1875 5.25 0.1875 Z M 5.25 0.1875 "/></g></g></g><g fill="#000000" fill-opacity="1"><g transform="translate(114.099396, 42.283792)"><g><path d="M 6.796875 0.25 C 5.953125 0.25 5.164062 0.109375 4.4375 -0.171875 C 3.71875 -0.453125 3.09375 -0.851562 2.5625 -1.375 C 2.03125 -1.894531 1.617188 -2.507812 1.328125 -3.21875 C 1.035156 -3.925781 0.890625 -4.71875 0.890625 -5.59375 L 0.890625 -5.625 C 0.890625 -6.425781 1.023438 -7.1875 1.296875 -7.90625 C 1.566406 -8.625 1.945312 -9.25 2.4375 -9.78125 C 2.9375 -10.320312 3.523438 -10.742188 4.203125 -11.046875 C 4.890625 -11.359375 5.644531 -11.515625 6.46875 -11.515625 C 7.414062 -11.515625 8.234375 -11.34375 8.921875 -11 C 9.609375 -10.664062 10.179688 -10.210938 10.640625 -9.640625 C 11.097656 -9.078125 11.4375 -8.425781 11.65625 -7.6875 C 11.875 -6.945312 11.984375 -6.175781 11.984375 -5.375 C 11.984375 -5.25 11.976562 -5.113281 11.96875 -4.96875 C 11.957031 -4.832031 11.945312 -4.6875 11.9375 -4.53125 L 4.078125 -4.53125 C 4.222656 -3.800781 4.539062 -3.25 5.03125 -2.875 C 5.519531 -2.507812 6.117188 -2.328125 6.828125 -2.328125 C 7.367188 -2.328125 7.847656 -2.414062 8.265625 -2.59375 C 8.691406 -2.78125 9.128906 -3.078125 9.578125 -3.484375 L 11.40625 -1.859375 C 10.875 -1.191406 10.226562 -0.671875 9.46875 -0.296875 C 8.707031 0.0664062 7.816406 0.25 6.796875 0.25 Z M 8.859375 -6.546875 C 8.765625 -7.253906 8.507812 -7.828125 8.09375 -8.265625 C 7.6875 -8.710938 7.144531 -8.9375 6.46875 -8.9375 C 5.800781 -8.9375 5.257812 -8.71875 4.84375 -8.28125 C 4.425781 -7.851562 4.15625 -7.273438 4.03125 -6.546875 Z M 8.859375 -6.546875 "/></g></g></g><g fill="#000000" fill-opacity="1"><g transform="translate(127.022995, 42.283792)"><g/></g></g><g fill="#000000" fill-opacity="1"><g transform="translate(133.347756, 42.283792)"><g><path d="M 6.828125 -14.875 L 9.828125 -14.875 L 16.15625 0 L 12.765625 0 L 11.40625 -3.3125 L 5.171875 -3.3125 L 3.8125 0 L 0.5 0 Z M 10.25 -6.1875 L 8.296875 -10.96875 L 6.328125 -6.1875 Z M 10.25 -6.1875 "/></g></g></g><g fill="#000000" fill-opacity="1"><g transform="translate(149.581223, 42.283792)"><g><path d="M 1.984375 -8.5625 L 0.65625 -8.5625 L 0.65625 -11.203125 L 1.984375 -11.203125 L 1.984375 -11.921875 C 1.984375 -13.140625 2.285156 -14.050781 2.890625 -14.65625 C 3.484375 -15.25 4.347656 -15.546875 5.484375 -15.546875 C 5.992188 -15.546875 6.425781 -15.515625 6.78125 -15.453125 C 7.132812 -15.398438 7.460938 -15.328125 7.765625 -15.234375 L 7.765625 -12.578125 C 7.523438 -12.660156 7.289062 -12.722656 7.0625 -12.765625 C 6.84375 -12.816406 6.59375 -12.84375 6.3125 -12.84375 C 5.53125 -12.84375 5.140625 -12.4375 5.140625 -11.625 L 5.140625 -11.1875 L 7.734375 -11.1875 L 7.734375 -8.5625 L 5.1875 -8.5625 L 5.1875 0 L 1.984375 0 Z M 1.984375 -8.5625 "/></g></g></g><g fill="#000000" fill-opacity="1"><g transform="translate(157.634755, 42.283792)"><g><path d="M 1.4375 -11.3125 L 4.640625 -11.3125 L 4.640625 -9.03125 C 4.960938 -9.800781 5.40625 -10.414062 5.96875 -10.875 C 6.53125 -11.34375 7.289062 -11.554688 8.25 -11.515625 L 8.25 -8.15625 L 8.078125 -8.15625 C 7.003906 -8.15625 6.160156 -7.832031 5.546875 -7.1875 C 4.941406 -6.539062 4.640625 -5.535156 4.640625 -4.171875 L 4.640625 0 L 1.4375 0 Z M 1.4375 -11.3125 "/></g></g></g><g fill="#000000" fill-opacity="1"><g transform="translate(166.447255, 42.283792)"><g><path d="M 1.5 -15.40625 L 4.875 -15.40625 L 4.875 -12.546875 L 1.5 -12.546875 Z M 1.578125 -11.3125 L 4.78125 -11.3125 L 4.78125 0 L 1.578125 0 Z M 1.578125 -11.3125 "/></g></g></g><g fill="#000000" fill-opacity="1"><g transform="translate(172.814177, 42.283792)"><g><path d="M 6.765625 0.25 C 5.921875 0.25 5.132812 0.0976562 4.40625 -0.203125 C 3.6875 -0.515625 3.066406 -0.929688 2.546875 -1.453125 C 2.023438 -1.984375 1.617188 -2.601562 1.328125 -3.3125 C 1.035156 -4.03125 0.890625 -4.789062 0.890625 -5.59375 L 0.890625 -5.625 C 0.890625 -6.425781 1.035156 -7.1875 1.328125 -7.90625 C 1.617188 -8.625 2.023438 -9.25 2.546875 -9.78125 C 3.066406 -10.320312 3.6875 -10.742188 4.40625 -11.046875 C 5.132812 -11.359375 5.9375 -11.515625 6.8125 -11.515625 C 7.882812 -11.515625 8.769531 -11.34375 9.46875 -11 C 10.175781 -10.664062 10.796875 -10.207031 11.328125 -9.625 L 9.359375 -7.515625 C 8.992188 -7.890625 8.617188 -8.1875 8.234375 -8.40625 C 7.847656 -8.632812 7.367188 -8.75 6.796875 -8.75 C 6.390625 -8.75 6.019531 -8.664062 5.6875 -8.5 C 5.351562 -8.34375 5.0625 -8.125 4.8125 -7.84375 C 4.570312 -7.5625 4.382812 -7.234375 4.25 -6.859375 C 4.113281 -6.492188 4.046875 -6.097656 4.046875 -5.671875 L 4.046875 -5.625 C 4.046875 -5.195312 4.113281 -4.789062 4.25 -4.40625 C 4.382812 -4.03125 4.578125 -3.703125 4.828125 -3.421875 C 5.078125 -3.140625 5.378906 -2.914062 5.734375 -2.75 C 6.085938 -2.59375 6.484375 -2.515625 6.921875 -2.515625 C 7.453125 -2.515625 7.914062 -2.625 8.3125 -2.84375 C 8.71875 -3.0625 9.117188 -3.351562 9.515625 -3.71875 L 11.390625 -1.8125 C 10.835938 -1.207031 10.207031 -0.710938 9.5 -0.328125 C 8.800781 0.0546875 7.890625 0.25 6.765625 0.25 Z M 6.765625 0.25 "/></g></g></g><g fill="#000000" fill-opacity="1"><g transform="translate(184.852304, 42.283792)"><g><path d="M 4.640625 0.21875 C 4.109375 0.21875 3.601562 0.144531 3.125 0 C 2.65625 -0.15625 2.242188 -0.378906 1.890625 -0.671875 C 1.546875 -0.972656 1.269531 -1.335938 1.0625 -1.765625 C 0.863281 -2.191406 0.765625 -2.6875 0.765625 -3.25 L 0.765625 -3.296875 C 0.765625 -3.910156 0.875 -4.441406 1.09375 -4.890625 C 1.320312 -5.335938 1.632812 -5.707031 2.03125 -6 C 2.4375 -6.300781 2.914062 -6.523438 3.46875 -6.671875 C 4.019531 -6.816406 4.632812 -6.890625 5.3125 -6.890625 C 5.894531 -6.890625 6.398438 -6.847656 6.828125 -6.765625 C 7.253906 -6.679688 7.671875 -6.570312 8.078125 -6.4375 L 8.078125 -6.625 C 8.078125 -7.300781 7.875 -7.8125 7.46875 -8.15625 C 7.0625 -8.507812 6.457031 -8.6875 5.65625 -8.6875 C 5.03125 -8.6875 4.484375 -8.632812 4.015625 -8.53125 C 3.546875 -8.425781 3.050781 -8.273438 2.53125 -8.078125 L 1.734375 -10.53125 C 2.347656 -10.789062 2.992188 -11.003906 3.671875 -11.171875 C 4.347656 -11.347656 5.164062 -11.4375 6.125 -11.4375 C 7.007812 -11.4375 7.765625 -11.328125 8.390625 -11.109375 C 9.015625 -10.890625 9.53125 -10.578125 9.9375 -10.171875 C 10.351562 -9.742188 10.660156 -9.222656 10.859375 -8.609375 C 11.054688 -8.003906 11.15625 -7.320312 11.15625 -6.5625 L 11.15625 0 L 8.0625 0 L 8.0625 -1.21875 C 7.664062 -0.78125 7.191406 -0.429688 6.640625 -0.171875 C 6.097656 0.0859375 5.429688 0.21875 4.640625 0.21875 Z M 5.609375 -2 C 6.367188 -2 6.976562 -2.179688 7.4375 -2.546875 C 7.894531 -2.910156 8.125 -3.390625 8.125 -3.984375 L 8.125 -4.5625 C 7.84375 -4.6875 7.53125 -4.785156 7.1875 -4.859375 C 6.84375 -4.941406 6.472656 -4.984375 6.078125 -4.984375 C 5.390625 -4.984375 4.847656 -4.847656 4.453125 -4.578125 C 4.054688 -4.304688 3.859375 -3.921875 3.859375 -3.421875 L 3.859375 -3.375 C 3.859375 -2.9375 4.019531 -2.597656 4.34375 -2.359375 C 4.664062 -2.117188 5.085938 -2 5.609375 -2 Z M 5.609375 -2 "/></g></g></g></g></g></g></g></g></g></mask><clipPath id="99a69d7b5a"><path d="M 0.488281 0.0195312 L 204.761719 0.0195312 L 204.761719 74.980469 L 0.488281 74.980469 Z M 0.488281 0.0195312 " clip-rule="nonzero"/></clipPath><clipPath id="699299ddda"><rect x="0" width="205" y="0" height="75"/></clipPath><clipPath id="05c625795f"><rect x="0" width="205" y="0" height="75"/></clipPath><clipPath id="88a2fe3293"><path d="M 21.8125 25.183594 L 44.300781 25.183594 L 44.300781 47.671875 L 21.8125 47.671875 Z M 21.8125 25.183594 " clip-rule="nonzero"/></clipPath><clipPath id="531e2b5048"><path d="M 33.054688 25.183594 C 26.847656 25.183594 21.8125 30.21875 21.8125 36.425781 C 21.8125 42.636719 26.847656 47.671875 33.054688 47.671875 C 39.265625 47.671875 44.300781 42.636719 44.300781 36.425781 C 44.300781 30.21875 39.265625 25.183594 33.054688 25.183594 Z M 33.054688 25.183594 " clip-rule="nonzero"/></clipPath><clipPath id="098c281c97"><path d="M 0.8125 0.183594 L 23.300781 0.183594 L 23.300781 22.671875 L 0.8125 22.671875 Z M 0.8125 0.183594 " clip-rule="nonzero"/></clipPath><clipPath id="7126102755"><path d="M 12.054688 0.183594 C 5.847656 0.183594 0.8125 5.21875 0.8125 11.425781 C 0.8125 17.636719 5.847656 22.671875 12.054688 22.671875 C 18.265625 22.671875 23.300781 17.636719 23.300781 11.425781 C 23.300781 5.21875 18.265625 0.183594 12.054688 0.183594 Z M 12.054688 0.183594 " clip-rule="nonzero"/></clipPath><clipPath id="da53cd749f"><rect x="0" width="24" y="0" height="23"/></clipPath><clipPath id="3094b2655f"><path d="M 121.71875 10.984375 L 224.761719 10.984375 L 224.761719 74.980469 L 121.71875 74.980469 Z M 121.71875 10.984375 " clip-rule="nonzero"/></clipPath><clipPath id="37f3287b3c"><path d="M 0.71875 0.984375 L 103.761719 0.984375 L 103.761719 64.980469 L 0.71875 64.980469 Z M 0.71875 0.984375 " clip-rule="nonzero"/></clipPath><clipPath id="a6e50b1e0d"><path d="M 4.46875 1.734375 L 103.761719 1.734375 L 103.761719 64.980469 L 4.46875 64.980469 Z M 4.46875 1.734375 " clip-rule="nonzero"/></clipPath><linearGradient x1="-38.104" gradientTransform="matrix(0.747555, 0, 0, 0.747385, 32.953332, 32.875008)" y1="14.5" x2="94.717701" gradientUnits="userSpaceOnUse" y2="14.5" id="1adf9d1766"><stop stop-opacity="1" stop-color="rgb(100%, 87.059021%, 34.899902%)" offset="0"/><stop stop-opacity="1" stop-color="rgb(100%, 87.059021%, 34.899902%)" offset="0.25"/><stop stop-opacity="1" stop-color="rgb(100%, 87.059021%, 34.899902%)" offset="0.3125"/><stop stop-opacity="1" stop-color="rgb(100%, 86.878967%, 34.870911%)" offset="0.328125"/><stop stop-opacity="1" stop-color="rgb(100%, 86.497498%, 34.811401%)" offset="0.332031"/><stop stop-opacity="1" stop-color="rgb(100%, 86.294556%, 34.780884%)" offset="0.335937"/><stop stop-opacity="1" stop-color="rgb(100%, 86.091614%, 34.74884%)" offset="0.339844"/><stop stop-opacity="1" stop-color="rgb(100%, 85.888672%, 34.716797%)" offset="0.34375"/><stop stop-opacity="1" stop-color="rgb(100%, 85.684204%, 34.684753%)" offset="0.347656"/><stop stop-opacity="1" stop-color="rgb(100%, 85.481262%, 34.654236%)" offset="0.351562"/><stop stop-opacity="1" stop-color="rgb(100%, 85.27832%, 34.622192%)" offset="0.355469"/><stop stop-opacity="1" stop-color="rgb(100%, 85.075378%, 34.590149%)" offset="0.359375"/><stop stop-opacity="1" stop-color="rgb(100%, 84.872437%, 34.558105%)" offset="0.363281"/><stop stop-opacity="1" stop-color="rgb(100%, 84.669495%, 34.527588%)" offset="0.367188"/><stop stop-opacity="1" stop-color="rgb(100%, 84.465027%, 34.495544%)" offset="0.371094"/><stop stop-opacity="1" stop-color="rgb(100%, 84.262085%, 34.463501%)" offset="0.375"/><stop stop-opacity="1" stop-color="rgb(100%, 84.059143%, 34.431458%)" offset="0.378906"/><stop stop-opacity="1" stop-color="rgb(100%, 83.856201%, 34.40094%)" offset="0.382812"/><stop stop-opacity="1" stop-color="rgb(100%, 83.653259%, 34.368896%)" offset="0.386719"/><stop stop-opacity="1" stop-color="rgb(100%, 83.450317%, 34.336853%)" offset="0.390625"/><stop stop-opacity="1" stop-color="rgb(100%, 83.24585%, 34.30481%)" offset="0.394531"/><stop stop-opacity="1" stop-color="rgb(100%, 83.042908%, 34.274292%)" offset="0.398438"/><stop stop-opacity="1" stop-color="rgb(100%, 82.839966%, 34.242249%)" offset="0.402344"/><stop stop-opacity="1" stop-color="rgb(100%, 82.637024%, 34.211731%)" offset="0.40625"/><stop stop-opacity="1" stop-color="rgb(100%, 82.432556%, 34.179688%)" offset="0.410156"/><stop stop-opacity="1" stop-color="rgb(100%, 82.229614%, 34.147644%)" offset="0.414062"/><stop stop-opacity="1" stop-color="rgb(100%, 82.026672%, 34.115601%)" offset="0.417969"/><stop stop-opacity="1" stop-color="rgb(100%, 81.82373%, 34.085083%)" offset="0.421875"/><stop stop-opacity="1" stop-color="rgb(100%, 81.620789%, 34.05304%)" offset="0.425781"/><stop stop-opacity="1" stop-color="rgb(100%, 81.417847%, 34.020996%)" offset="0.429688"/><stop stop-opacity="1" stop-color="rgb(100%, 81.213379%, 33.988953%)" offset="0.433594"/><stop stop-opacity="1" stop-color="rgb(100%, 81.010437%, 33.958435%)" offset="0.4375"/><stop stop-opacity="1" stop-color="rgb(100%, 80.807495%, 33.926392%)" offset="0.441406"/><stop stop-opacity="1" stop-color="rgb(100%, 80.604553%, 33.894348%)" offset="0.445312"/><stop stop-opacity="1" stop-color="rgb(100%, 80.401611%, 33.862305%)" offset="0.449219"/><stop stop-opacity="1" stop-color="rgb(100%, 80.198669%, 33.831787%)" offset="0.453125"/><stop stop-opacity="1" stop-color="rgb(100%, 79.994202%, 33.799744%)" offset="0.457031"/><stop stop-opacity="1" stop-color="rgb(100%, 79.79126%, 33.7677%)" offset="0.460938"/><stop stop-opacity="1" stop-color="rgb(100%, 79.588318%, 33.735657%)" offset="0.464844"/><stop stop-opacity="1" stop-color="rgb(100%, 79.385376%, 33.705139%)" offset="0.46875"/><stop stop-opacity="1" stop-color="rgb(100%, 79.182434%, 33.673096%)" offset="0.472656"/><stop stop-opacity="1" stop-color="rgb(100%, 78.979492%, 33.641052%)" offset="0.476562"/><stop stop-opacity="1" stop-color="rgb(100%, 78.775024%, 33.609009%)" offset="0.480469"/><stop stop-opacity="1" stop-color="rgb(100%, 78.572083%, 33.578491%)" offset="0.484375"/><stop stop-opacity="1" stop-color="rgb(100%, 78.369141%, 33.546448%)" offset="0.488281"/><stop stop-opacity="1" stop-color="rgb(100%, 78.166199%, 33.51593%)" offset="0.492188"/><stop stop-opacity="1" stop-color="rgb(100%, 77.963257%, 33.483887%)" offset="0.496094"/><stop stop-opacity="1" stop-color="rgb(100%, 77.760315%, 33.451843%)" offset="0.5"/><stop stop-opacity="1" stop-color="rgb(100%, 77.555847%, 33.4198%)" offset="0.503906"/><stop stop-opacity="1" stop-color="rgb(100%, 77.352905%, 33.389282%)" offset="0.507812"/><stop stop-opacity="1" stop-color="rgb(100%, 77.149963%, 33.357239%)" offset="0.511719"/><stop stop-opacity="1" stop-color="rgb(100%, 76.947021%, 33.325195%)" offset="0.515625"/><stop stop-opacity="1" stop-color="rgb(100%, 76.74408%, 33.293152%)" offset="0.519531"/><stop stop-opacity="1" stop-color="rgb(100%, 76.541138%, 33.262634%)" offset="0.523438"/><stop stop-opacity="1" stop-color="rgb(100%, 76.33667%, 33.230591%)" offset="0.527344"/><stop stop-opacity="1" stop-color="rgb(100%, 76.133728%, 33.198547%)" offset="0.53125"/><stop stop-opacity="1" stop-color="rgb(100%, 75.930786%, 33.166504%)" offset="0.535156"/><stop stop-opacity="1" stop-color="rgb(100%, 75.727844%, 33.135986%)" offset="0.539062"/><stop stop-opacity="1" stop-color="rgb(100%, 75.524902%, 33.103943%)" offset="0.542969"/><stop stop-opacity="1" stop-color="rgb(100%, 75.32196%, 33.071899%)" offset="0.546875"/><stop stop-opacity="1" stop-color="rgb(100%, 75.117493%, 33.039856%)" offset="0.550781"/><stop stop-opacity="1" stop-color="rgb(100%, 74.914551%, 33.009338%)" offset="0.554688"/><stop stop-opacity="1" stop-color="rgb(100%, 74.711609%, 32.977295%)" offset="0.558594"/><stop stop-opacity="1" stop-color="rgb(100%, 74.508667%, 32.945251%)" offset="0.5625"/><stop stop-opacity="1" stop-color="rgb(100%, 74.305725%, 32.913208%)" offset="0.566406"/><stop stop-opacity="1" stop-color="rgb(100%, 74.102783%, 32.88269%)" offset="0.570312"/><stop stop-opacity="1" stop-color="rgb(100%, 73.898315%, 32.850647%)" offset="0.574219"/><stop stop-opacity="1" stop-color="rgb(100%, 73.695374%, 32.820129%)" offset="0.578125"/><stop stop-opacity="1" stop-color="rgb(100%, 73.492432%, 32.788086%)" offset="0.582031"/><stop stop-opacity="1" stop-color="rgb(100%, 73.28949%, 32.756042%)" offset="0.585938"/><stop stop-opacity="1" stop-color="rgb(100%, 73.086548%, 32.723999%)" offset="0.589844"/><stop stop-opacity="1" stop-color="rgb(100%, 72.883606%, 32.693481%)" offset="0.59375"/><stop stop-opacity="1" stop-color="rgb(100%, 72.679138%, 32.661438%)" offset="0.597656"/><stop stop-opacity="1" stop-color="rgb(100%, 72.476196%, 32.629395%)" offset="0.601563"/><stop stop-opacity="1" stop-color="rgb(100%, 72.273254%, 32.597351%)" offset="0.605469"/><stop stop-opacity="1" stop-color="rgb(100%, 72.070312%, 32.566833%)" offset="0.609375"/><stop stop-opacity="1" stop-color="rgb(100%, 71.867371%, 32.53479%)" offset="0.613281"/><stop stop-opacity="1" stop-color="rgb(100%, 71.664429%, 32.502747%)" offset="0.617188"/><stop stop-opacity="1" stop-color="rgb(100%, 71.459961%, 32.470703%)" offset="0.621094"/><stop stop-opacity="1" stop-color="rgb(100%, 71.257019%, 32.440186%)" offset="0.625"/><stop stop-opacity="1" stop-color="rgb(100%, 71.054077%, 32.408142%)" offset="0.628906"/><stop stop-opacity="1" stop-color="rgb(100%, 70.851135%, 32.376099%)" offset="0.632812"/><stop stop-opacity="1" stop-color="rgb(100%, 70.648193%, 32.344055%)" offset="0.636719"/><stop stop-opacity="1" stop-color="rgb(100%, 70.445251%, 32.313538%)" offset="0.640625"/><stop stop-opacity="1" stop-color="rgb(100%, 70.240784%, 32.281494%)" offset="0.644531"/><stop stop-opacity="1" stop-color="rgb(100%, 70.037842%, 32.250977%)" offset="0.648438"/><stop stop-opacity="1" stop-color="rgb(100%, 69.8349%, 32.218933%)" offset="0.652344"/><stop stop-opacity="1" stop-color="rgb(100%, 69.631958%, 32.18689%)" offset="0.65625"/><stop stop-opacity="1" stop-color="rgb(100%, 69.429016%, 32.154846%)" offset="0.660156"/><stop stop-opacity="1" stop-color="rgb(100%, 69.226074%, 32.124329%)" offset="0.664062"/><stop stop-opacity="1" stop-color="rgb(100%, 69.021606%, 32.092285%)" offset="0.667969"/><stop stop-opacity="1" stop-color="rgb(100%, 68.818665%, 32.060242%)" offset="0.671875"/><stop stop-opacity="1" stop-color="rgb(100%, 68.615723%, 32.028198%)" offset="0.675781"/><stop stop-opacity="1" stop-color="rgb(100%, 68.412781%, 31.997681%)" offset="0.679688"/><stop stop-opacity="1" stop-color="rgb(100%, 68.208313%, 31.965637%)" offset="0.683594"/><stop stop-opacity="1" stop-color="rgb(100%, 68.005371%, 31.933594%)" offset="0.6875"/><stop stop-opacity="1" stop-color="rgb(100%, 67.802429%, 31.90155%)" offset="0.691406"/><stop stop-opacity="1" stop-color="rgb(100%, 67.599487%, 31.871033%)" offset="0.695312"/><stop stop-opacity="1" stop-color="rgb(100%, 67.396545%, 31.838989%)" offset="0.699219"/><stop stop-opacity="1" stop-color="rgb(100%, 67.193604%, 31.806946%)" offset="0.703125"/><stop stop-opacity="1" stop-color="rgb(100%, 66.989136%, 31.774902%)" offset="0.707031"/><stop stop-opacity="1" stop-color="rgb(100%, 66.786194%, 31.744385%)" offset="0.710938"/><stop stop-opacity="1" stop-color="rgb(100%, 66.583252%, 31.712341%)" offset="0.714844"/><stop stop-opacity="1" stop-color="rgb(100%, 66.38031%, 31.680298%)" offset="0.71875"/><stop stop-opacity="1" stop-color="rgb(100%, 66.177368%, 31.648254%)" offset="0.722656"/><stop stop-opacity="1" stop-color="rgb(100%, 65.974426%, 31.617737%)" offset="0.726562"/><stop stop-opacity="1" stop-color="rgb(100%, 65.769958%, 31.585693%)" offset="0.730469"/><stop stop-opacity="1" stop-color="rgb(100%, 65.567017%, 31.555176%)" offset="0.734375"/><stop stop-opacity="1" stop-color="rgb(100%, 65.364075%, 31.523132%)" offset="0.738281"/><stop stop-opacity="1" stop-color="rgb(100%, 65.161133%, 31.491089%)" offset="0.742187"/><stop stop-opacity="1" stop-color="rgb(100%, 64.958191%, 31.459045%)" offset="0.746094"/><stop stop-opacity="1" stop-color="rgb(100%, 64.755249%, 31.428528%)" offset="0.75"/><stop stop-opacity="1" stop-color="rgb(100%, 64.550781%, 31.396484%)" offset="0.753906"/><stop stop-opacity="1" stop-color="rgb(100%, 64.347839%, 31.364441%)" offset="0.757812"/><stop stop-opacity="1" stop-color="rgb(100%, 64.144897%, 31.332397%)" offset="0.761719"/><stop stop-opacity="1" stop-color="rgb(100%, 63.941956%, 31.30188%)" offset="0.765625"/><stop stop-opacity="1" stop-color="rgb(100%, 63.739014%, 31.269836%)" offset="0.769531"/><stop stop-opacity="1" stop-color="rgb(100%, 63.536072%, 31.237793%)" offset="0.773437"/><stop stop-opacity="1" stop-color="rgb(100%, 63.331604%, 31.20575%)" offset="0.777344"/><stop stop-opacity="1" stop-color="rgb(100%, 63.128662%, 31.175232%)" offset="0.78125"/><stop stop-opacity="1" stop-color="rgb(100%, 62.92572%, 31.143188%)" offset="0.785156"/><stop stop-opacity="1" stop-color="rgb(100%, 62.722778%, 31.111145%)" offset="0.789062"/><stop stop-opacity="1" stop-color="rgb(100%, 62.519836%, 31.079102%)" offset="0.792969"/><stop stop-opacity="1" stop-color="rgb(100%, 62.316895%, 31.048584%)" offset="0.796875"/><stop stop-opacity="1" stop-color="rgb(100%, 62.112427%, 31.016541%)" offset="0.800781"/><stop stop-opacity="1" stop-color="rgb(100%, 61.909485%, 30.986023%)" offset="0.804687"/><stop stop-opacity="1" stop-color="rgb(100%, 61.706543%, 30.953979%)" offset="0.808594"/><stop stop-opacity="1" stop-color="rgb(100%, 61.503601%, 30.921936%)" offset="0.8125"/><stop stop-opacity="1" stop-color="rgb(100%, 61.300659%, 30.889893%)" offset="0.816406"/><stop stop-opacity="1" stop-color="rgb(100%, 61.097717%, 30.859375%)" offset="0.820312"/><stop stop-opacity="1" stop-color="rgb(100%, 60.89325%, 30.827332%)" offset="0.824219"/><stop stop-opacity="1" stop-color="rgb(100%, 60.690308%, 30.795288%)" offset="0.828125"/><stop stop-opacity="1" stop-color="rgb(100%, 60.487366%, 30.763245%)" offset="0.832031"/><stop stop-opacity="1" stop-color="rgb(100%, 60.284424%, 30.732727%)" offset="0.835937"/><stop stop-opacity="1" stop-color="rgb(100%, 60.081482%, 30.700684%)" offset="0.839844"/><stop stop-opacity="1" stop-color="rgb(100%, 59.87854%, 30.66864%)" offset="0.84375"/><stop stop-opacity="1" stop-color="rgb(100%, 59.674072%, 30.636597%)" offset="0.847656"/><stop stop-opacity="1" stop-color="rgb(100%, 59.47113%, 30.606079%)" offset="0.851562"/><stop stop-opacity="1" stop-color="rgb(100%, 59.268188%, 30.574036%)" offset="0.855469"/><stop stop-opacity="1" stop-color="rgb(100%, 59.065247%, 30.541992%)" offset="0.859375"/><stop stop-opacity="1" stop-color="rgb(100%, 58.862305%, 30.509949%)" offset="0.863281"/><stop stop-opacity="1" stop-color="rgb(100%, 58.659363%, 30.479431%)" offset="0.867188"/><stop stop-opacity="1" stop-color="rgb(100%, 58.454895%, 30.447388%)" offset="0.871094"/><stop stop-opacity="1" stop-color="rgb(100%, 58.251953%, 30.415344%)" offset="0.875"/><stop stop-opacity="1" stop-color="rgb(100%, 58.049011%, 30.383301%)" offset="0.878906"/><stop stop-opacity="1" stop-color="rgb(100%, 57.846069%, 30.352783%)" offset="0.882812"/><stop stop-opacity="1" stop-color="rgb(100%, 57.643127%, 30.32074%)" offset="0.886719"/><stop stop-opacity="1" stop-color="rgb(100%, 57.440186%, 30.290222%)" offset="0.890625"/><stop stop-opacity="1" stop-color="rgb(100%, 57.235718%, 30.258179%)" offset="0.894531"/><stop stop-opacity="1" stop-color="rgb(100%, 57.032776%, 30.226135%)" offset="0.898438"/><stop stop-opacity="1" stop-color="rgb(100%, 56.945801%, 30.212402%)" offset="0.90625"/><stop stop-opacity="1" stop-color="rgb(100%, 56.858826%, 30.198669%)" offset="0.9375"/><stop stop-opacity="1" stop-color="rgb(100%, 56.858826%, 30.198669%)" offset="1"/></linearGradient><clipPath id="3b75146d4f"><rect x="0" width="104" y="0" height="65"/></clipPath><clipPath id="13f2793820"><path d="M 0.71875 0.984375 L 103.761719 0.984375 L 103.761719 64.980469 L 0.71875 64.980469 Z M 0.71875 0.984375 " clip-rule="nonzero"/></clipPath><clipPath id="a6915b60ac"><rect x="0" width="104" y="0" height="65"/></clipPath><clipPath id="f257873234"><rect x="0" width="104" y="0" height="65"/></clipPath><mask id="4ed07e7a2e"><g filter="url(#3a88ffc46b)"><g transform="matrix(1, 0, 0, 1, 0.000000000000014211, 0.000000000000001776)"><g clip-path="url(#f257873234)"><g clip-path="url(#13f2793820)"><g transform="matrix(1, 0, 0, 1, 0.000000000000014211, 0.000000000000001776)"><g clip-path="url(#a6915b60ac)"><g fill="#000000" fill-opacity="1"><g transform="translate(36.372928, 46.710482)"><g><path d="M 2.453125 1.859375 C 0.804688 1.710938 -0.015625 0.867188 -0.015625 -0.671875 C -0.015625 -1.585938 0.269531 -2.554688 0.84375 -3.578125 C 1.1875 -4.191406 1.613281 -4.789062 2.125 -5.375 C 2.644531 -5.96875 3.210938 -6.5 3.828125 -6.96875 C 4.441406 -7.445312 5.070312 -7.820312 5.71875 -8.09375 C 6.363281 -8.375 6.984375 -8.515625 7.578125 -8.515625 C 8.628906 -8.515625 9.15625 -8.128906 9.15625 -7.359375 C 9.15625 -6.828125 8.992188 -6.242188 8.671875 -5.609375 C 8.359375 -4.972656 8.035156 -4.566406 7.703125 -4.390625 C 7.671875 -4.378906 7.632812 -4.375 7.59375 -4.375 C 7.5625 -4.375 7.546875 -4.382812 7.546875 -4.40625 L 8.078125 -5.28125 C 8.429688 -5.875 8.609375 -6.394531 8.609375 -6.84375 C 8.609375 -7.164062 8.523438 -7.46875 8.359375 -7.75 C 8.191406 -8.039062 7.890625 -8.1875 7.453125 -8.1875 C 6.921875 -8.1875 6.375 -8.035156 5.8125 -7.734375 C 5.25 -7.429688 4.707031 -7.035156 4.1875 -6.546875 C 3.664062 -6.054688 3.191406 -5.515625 2.765625 -4.921875 C 2.335938 -4.335938 2 -3.757812 1.75 -3.1875 C 1.195312 -1.957031 0.921875 -0.960938 0.921875 -0.203125 C 0.921875 0.929688 1.503906 1.5 2.671875 1.5 C 3.773438 1.5 5.273438 0.785156 7.171875 -0.640625 C 7.609375 -0.972656 8.171875 -1.4375 8.859375 -2.03125 C 9.546875 -2.625 10.351562 -3.347656 11.28125 -4.203125 C 11.15625 -4.191406 10.992188 -4.175781 10.796875 -4.15625 C 10.609375 -4.144531 10.390625 -4.117188 10.140625 -4.078125 C 10.023438 -4.054688 9.921875 -4.035156 9.828125 -4.015625 C 9.734375 -4.003906 9.644531 -4 9.5625 -4 C 9.34375 -4.019531 9.25 -4.070312 9.28125 -4.15625 C 9.320312 -4.550781 9.523438 -4.75 9.890625 -4.75 C 10.222656 -4.707031 10.535156 -4.675781 10.828125 -4.65625 C 11.117188 -4.632812 11.398438 -4.625 11.671875 -4.625 C 12.085938 -5 12.640625 -5.53125 13.328125 -6.21875 C 14.015625 -6.90625 14.832031 -7.753906 15.78125 -8.765625 C 17 -10.046875 17.742188 -10.6875 18.015625 -10.6875 C 18.128906 -10.6875 18.1875 -10.582031 18.1875 -10.375 C 18.1875 -10.289062 18.175781 -10.179688 18.15625 -10.046875 C 18.132812 -9.921875 18.101562 -9.773438 18.0625 -9.609375 C 17.957031 -9.203125 17.847656 -8.957031 17.734375 -8.875 C 17.398438 -8.632812 17.125 -8.332031 16.90625 -7.96875 C 16.6875 -7.601562 16.460938 -7.195312 16.234375 -6.75 C 16.015625 -6.289062 15.8125 -5.878906 15.625 -5.515625 C 15.4375 -5.160156 15.269531 -4.847656 15.125 -4.578125 L 16.671875 -4.609375 C 17.054688 -4.609375 17.25 -4.582031 17.25 -4.53125 C 17.25 -4.507812 17.238281 -4.488281 17.21875 -4.46875 C 17.03125 -4.351562 16.257812 -4.25 14.90625 -4.15625 C 13.914062 -2.226562 13.421875 -0.90625 13.421875 -0.1875 C 13.421875 0.300781 13.578125 0.546875 13.890625 0.546875 C 14.003906 0.546875 14.15625 0.46875 14.34375 0.3125 C 14.507812 0.175781 14.613281 0.109375 14.65625 0.109375 C 14.65625 0.0859375 14.660156 0.0820312 14.671875 0.09375 C 14.679688 0.101562 14.675781 0.109375 14.65625 0.109375 C 14.601562 0.304688 14.445312 0.476562 14.1875 0.625 C 13.925781 0.78125 13.648438 0.859375 13.359375 0.859375 C 13.097656 0.859375 12.921875 0.773438 12.828125 0.609375 C 12.742188 0.441406 12.703125 0.207031 12.703125 -0.09375 C 12.703125 -1.164062 13.113281 -2.535156 13.9375 -4.203125 L 12.015625 -4.15625 C 10.585938 -2.757812 9.15625 -1.535156 7.71875 -0.484375 C 5.425781 1.179688 3.671875 1.960938 2.453125 1.859375 Z M 14.078125 -4.625 C 14.210938 -4.863281 14.46875 -5.304688 14.84375 -5.953125 C 15.226562 -6.597656 15.75 -7.4375 16.40625 -8.46875 L 12.3125 -4.640625 Z M 14.078125 -4.625 "/></g></g></g><g fill="#000000" fill-opacity="1"><g transform="translate(55.110982, 46.710482)"><g><path d="M -0.171875 3.28125 C -0.492188 3.28125 -0.765625 3.144531 -0.984375 2.875 C -1.210938 2.613281 -1.332031 2.328125 -1.34375 2.015625 C -1.3125 1.890625 -1.265625 1.828125 -1.203125 1.828125 C -1.140625 1.828125 -1.101562 1.90625 -1.09375 2.0625 C -1.082031 2.226562 -0.992188 2.394531 -0.828125 2.5625 C -0.671875 2.71875 -0.519531 2.796875 -0.375 2.796875 C 0.25 2.796875 0.898438 2.394531 1.578125 1.59375 C 1.828125 1.3125 2.082031 0.972656 2.34375 0.578125 C 2.601562 0.191406 2.851562 -0.242188 3.09375 -0.734375 L 3.90625 -2.3125 L 2.703125 -1.109375 C 2.328125 -0.734375 2.003906 -0.453125 1.734375 -0.265625 C 1.460938 -0.0859375 1.253906 0 1.109375 0 C 0.847656 0 0.585938 -0.09375 0.328125 -0.28125 C 0.078125 -0.46875 -0.0625 -0.679688 -0.09375 -0.921875 C -0.195312 -1.742188 0.316406 -2.722656 1.453125 -3.859375 C 2.597656 -4.972656 3.613281 -5.53125 4.5 -5.53125 C 4.75 -5.53125 4.941406 -5.472656 5.078125 -5.359375 C 5.148438 -5.296875 5.207031 -5.195312 5.25 -5.0625 C 5.289062 -4.9375 5.320312 -4.875 5.34375 -4.875 C 5.382812 -4.875 5.421875 -4.878906 5.453125 -4.890625 C 5.484375 -4.910156 5.519531 -4.921875 5.5625 -4.921875 C 5.695312 -4.921875 5.8125 -4.875 5.90625 -4.78125 C 6 -4.6875 6.03125 -4.585938 6 -4.484375 C 5.988281 -4.390625 5.832031 -4.101562 5.53125 -3.625 C 5.34375 -3.3125 5.125 -2.925781 4.875 -2.46875 C 4.625 -2.019531 4.363281 -1.550781 4.09375 -1.0625 C 3.820312 -0.570312 3.554688 -0.117188 3.296875 0.296875 C 3.046875 0.710938 2.820312 1.054688 2.625 1.328125 C 1.644531 2.628906 0.710938 3.28125 -0.171875 3.28125 Z M 0.953125 -0.375 C 1.578125 -0.375 2.421875 -1.046875 3.484375 -2.390625 L 5.171875 -4.734375 C 5.109375 -4.878906 4.976562 -4.953125 4.78125 -4.953125 C 4.113281 -4.953125 3.226562 -4.429688 2.125 -3.390625 C 0.976562 -2.304688 0.460938 -1.425781 0.578125 -0.75 C 0.628906 -0.5 0.753906 -0.375 0.953125 -0.375 Z M 0.953125 -0.375 "/></g></g></g><g fill="#000000" fill-opacity="1"><g transform="translate(63.457076, 46.710482)"><g><path d="M 0.8125 0.203125 C 0.46875 0.203125 0.160156 0.09375 -0.109375 -0.125 C -0.390625 -0.34375 -0.53125 -0.628906 -0.53125 -0.984375 C -0.53125 -1.742188 -0.0664062 -2.609375 0.859375 -3.578125 C 1.804688 -4.554688 2.65625 -5.046875 3.40625 -5.046875 C 3.644531 -5.046875 3.84375 -4.976562 4 -4.84375 C 4.15625 -4.71875 4.234375 -4.554688 4.234375 -4.359375 C 4.234375 -3.765625 3.757812 -3.179688 2.8125 -2.609375 C 1.96875 -2.097656 1.257812 -1.84375 0.6875 -1.84375 C 0.601562 -1.84375 0.53125 -1.851562 0.46875 -1.875 C 0.300781 -1.582031 0.21875 -1.273438 0.21875 -0.953125 C 0.21875 -0.398438 0.476562 -0.125 1 -0.125 C 1.539062 -0.125 2.226562 -0.484375 3.0625 -1.203125 C 3.71875 -1.722656 4.273438 -2.273438 4.734375 -2.859375 C 4.828125 -2.984375 4.910156 -3.046875 4.984375 -3.046875 C 5.046875 -3.046875 5.078125 -3.015625 5.078125 -2.953125 C 5.078125 -2.890625 5.035156 -2.800781 4.953125 -2.6875 C 4.648438 -2.289062 4.328125 -1.925781 3.984375 -1.59375 C 3.648438 -1.269531 3.285156 -0.96875 2.890625 -0.6875 C 2.066406 -0.09375 1.375 0.203125 0.8125 0.203125 Z M 0.90625 -2.1875 C 1.3125 -2.1875 1.84375 -2.390625 2.5 -2.796875 C 2.707031 -2.941406 2.914062 -3.109375 3.125 -3.296875 C 3.332031 -3.484375 3.503906 -3.671875 3.640625 -3.859375 C 3.773438 -4.054688 3.84375 -4.226562 3.84375 -4.375 C 3.84375 -4.519531 3.726562 -4.59375 3.5 -4.59375 C 3.175781 -4.59375 2.726562 -4.351562 2.15625 -3.875 C 1.882812 -3.632812 1.617188 -3.375 1.359375 -3.09375 C 1.097656 -2.820312 0.878906 -2.53125 0.703125 -2.21875 C 0.765625 -2.195312 0.832031 -2.1875 0.90625 -2.1875 Z M 0.90625 -2.1875 "/></g></g></g><g fill="#000000" fill-opacity="1"><g transform="translate(69.996573, 46.710482)"><g><path d="M 4.078125 0.03125 C 3.785156 0.03125 3.582031 -0.0507812 3.46875 -0.21875 C 3.351562 -0.382812 3.296875 -0.585938 3.296875 -0.828125 C 3.296875 -1.453125 3.507812 -2.113281 3.9375 -2.8125 L 4.953125 -4.46875 C 4.234375 -3.9375 3.515625 -3.273438 2.796875 -2.484375 C 2.609375 -2.265625 2.394531 -2.007812 2.15625 -1.71875 C 1.914062 -1.4375 1.648438 -1.109375 1.359375 -0.734375 C 0.972656 -0.234375 0.742188 0.015625 0.671875 0.015625 C 0.523438 0.015625 0.398438 -0.0507812 0.296875 -0.1875 C 0.203125 -0.320312 0.15625 -0.441406 0.15625 -0.546875 C 0.15625 -0.628906 0.179688 -0.785156 0.234375 -1.015625 C 0.285156 -1.242188 0.351562 -1.441406 0.4375 -1.609375 C 0.507812 -1.796875 0.582031 -1.972656 0.65625 -2.140625 C 0.738281 -2.316406 0.816406 -2.492188 0.890625 -2.671875 L -0.0625 -1.65625 C -0.0820312 -1.632812 -0.144531 -1.570312 -0.25 -1.46875 C -0.363281 -1.363281 -0.453125 -1.3125 -0.515625 -1.3125 C -0.566406 -1.3125 -0.59375 -1.347656 -0.59375 -1.421875 C -0.59375 -1.441406 -0.582031 -1.46875 -0.5625 -1.5 C -0.550781 -1.539062 -0.519531 -1.585938 -0.46875 -1.640625 C -0.300781 -1.804688 -0.132812 -1.976562 0.03125 -2.15625 C 0.195312 -2.332031 0.375 -2.539062 0.5625 -2.78125 C 0.65625 -2.894531 0.796875 -3.070312 0.984375 -3.3125 C 1.179688 -3.550781 1.394531 -3.804688 1.625 -4.078125 C 1.851562 -4.359375 2.066406 -4.617188 2.265625 -4.859375 C 2.316406 -4.929688 2.375 -4.976562 2.4375 -5 C 2.507812 -5.03125 2.554688 -5.046875 2.578125 -5.046875 C 2.859375 -5.046875 3 -4.9375 3 -4.71875 C 3 -4.65625 2.984375 -4.59375 2.953125 -4.53125 C 1.992188 -3.207031 1.421875 -2.195312 1.234375 -1.5 C 2.460938 -2.738281 3.453125 -3.671875 4.203125 -4.296875 C 4.960938 -4.921875 5.5 -5.234375 5.8125 -5.234375 C 5.988281 -5.234375 6.117188 -5.203125 6.203125 -5.140625 C 6.296875 -5.085938 6.34375 -4.988281 6.34375 -4.84375 C 6.34375 -4.789062 6.335938 -4.75 6.328125 -4.71875 C 6.296875 -4.644531 6.078125 -4.34375 5.671875 -3.8125 C 5.429688 -3.519531 5.21875 -3.25 5.03125 -3 C 4.84375 -2.757812 4.691406 -2.546875 4.578125 -2.359375 C 4.378906 -2.066406 4.234375 -1.789062 4.140625 -1.53125 C 4.046875 -1.269531 4 -1.046875 4 -0.859375 C 4 -0.785156 4.007812 -0.695312 4.03125 -0.59375 C 4.050781 -0.488281 4.113281 -0.4375 4.21875 -0.4375 C 4.46875 -0.4375 4.851562 -0.648438 5.375 -1.078125 C 5.613281 -1.285156 5.835938 -1.5 6.046875 -1.71875 C 6.265625 -1.9375 6.472656 -2.148438 6.671875 -2.359375 C 6.710938 -2.398438 6.78125 -2.484375 6.875 -2.609375 C 6.96875 -2.734375 7.023438 -2.796875 7.046875 -2.796875 C 7.085938 -2.796875 7.109375 -2.753906 7.109375 -2.671875 C 7.109375 -2.628906 7.082031 -2.554688 7.03125 -2.453125 C 6.988281 -2.347656 6.941406 -2.269531 6.890625 -2.21875 C 6.773438 -2.082031 6.601562 -1.890625 6.375 -1.640625 C 6.144531 -1.398438 5.882812 -1.148438 5.59375 -0.890625 C 5.3125 -0.640625 5.035156 -0.421875 4.765625 -0.234375 C 4.503906 -0.0546875 4.273438 0.03125 4.078125 0.03125 Z M 4.078125 0.03125 "/></g></g></g><g fill="#000000" fill-opacity="1"><g transform="translate(78.870267, 46.710482)"><g><path d="M 1.21875 0.203125 C 0.875 0.203125 0.5625 0.09375 0.28125 -0.125 C 0.0078125 -0.34375 -0.125 -0.628906 -0.125 -0.984375 C -0.125 -1.742188 0.335938 -2.609375 1.265625 -3.578125 C 2.210938 -4.554688 3.054688 -5.046875 3.796875 -5.046875 C 4.054688 -5.046875 4.257812 -4.976562 4.40625 -4.84375 C 4.5625 -4.71875 4.640625 -4.554688 4.640625 -4.359375 C 4.640625 -4.097656 4.570312 -3.851562 4.4375 -3.625 C 4.289062 -3.351562 4.078125 -3.21875 3.796875 -3.21875 C 3.523438 -3.21875 3.390625 -3.300781 3.390625 -3.46875 C 3.390625 -3.582031 3.457031 -3.757812 3.59375 -4 C 3.738281 -4.238281 3.8125 -4.363281 3.8125 -4.375 C 3.8125 -4.394531 3.796875 -4.40625 3.765625 -4.40625 C 3.472656 -4.375 3.0625 -4.15625 2.53125 -3.75 C 2.289062 -3.570312 2.082031 -3.398438 1.90625 -3.234375 C 1.726562 -3.078125 1.585938 -2.925781 1.484375 -2.78125 L 0.859375 -1.875 C 0.796875 -1.769531 0.726562 -1.597656 0.65625 -1.359375 C 0.59375 -1.128906 0.5625 -0.957031 0.5625 -0.84375 C 0.5625 -0.632812 0.628906 -0.457031 0.765625 -0.3125 C 0.910156 -0.175781 1.097656 -0.109375 1.328125 -0.109375 C 1.859375 -0.109375 2.5625 -0.457031 3.4375 -1.15625 C 4.132812 -1.707031 4.695312 -2.265625 5.125 -2.828125 C 5.175781 -2.890625 5.242188 -2.921875 5.328125 -2.921875 C 5.398438 -2.921875 5.4375 -2.898438 5.4375 -2.859375 C 5.4375 -2.828125 5.410156 -2.773438 5.359375 -2.703125 C 4.765625 -1.921875 4.078125 -1.25 3.296875 -0.6875 C 2.453125 -0.09375 1.757812 0.203125 1.21875 0.203125 Z M 1.21875 0.203125 "/></g></g></g><g fill="#000000" fill-opacity="1"><g transform="translate(85.825444, 46.710482)"><g><path d="M 0.375 3.28125 C 0.03125 3.28125 -0.269531 3.132812 -0.53125 2.84375 C -0.78125 2.539062 -0.898438 2.210938 -0.890625 1.859375 C -0.765625 2.015625 -0.597656 2.195312 -0.390625 2.40625 C -0.109375 2.675781 0.164062 2.8125 0.4375 2.8125 C 1.039062 2.8125 1.691406 2.328125 2.390625 1.359375 C 2.640625 1.015625 2.894531 0.613281 3.15625 0.15625 C 3.414062 -0.289062 3.664062 -0.789062 3.90625 -1.34375 L 4.5 -2.8125 L 2.15625 -0.96875 C 1.4375 -0.40625 0.859375 -0.125 0.421875 -0.125 C 0.179688 -0.125 -0.00390625 -0.207031 -0.140625 -0.375 C -0.285156 -0.550781 -0.359375 -0.726562 -0.359375 -0.90625 C -0.359375 -1.363281 0.0351562 -2.117188 0.828125 -3.171875 C 1.617188 -4.222656 2.210938 -4.75 2.609375 -4.75 C 2.929688 -4.75 3.09375 -4.625 3.09375 -4.375 C 3.09375 -4.28125 2.617188 -3.726562 1.671875 -2.71875 C 0.734375 -1.71875 0.265625 -1.039062 0.265625 -0.6875 C 0.265625 -0.550781 0.359375 -0.484375 0.546875 -0.484375 C 0.890625 -0.484375 1.628906 -0.925781 2.765625 -1.8125 C 3.234375 -2.175781 3.648438 -2.515625 4.015625 -2.828125 C 4.378906 -3.140625 4.679688 -3.414062 4.921875 -3.65625 C 5.003906 -3.757812 5.085938 -3.863281 5.171875 -3.96875 C 5.265625 -4.070312 5.347656 -4.175781 5.421875 -4.28125 C 5.617188 -4.519531 5.820312 -4.640625 6.03125 -4.640625 C 6.3125 -4.640625 6.453125 -4.519531 6.453125 -4.28125 C 6.453125 -4.238281 6.226562 -3.890625 5.78125 -3.234375 C 5.550781 -2.867188 5.363281 -2.585938 5.21875 -2.390625 C 5.082031 -2.191406 5.003906 -2.066406 4.984375 -2.015625 C 4.648438 -1.378906 4.144531 -0.445312 3.46875 0.78125 C 2.4375 2.445312 1.40625 3.28125 0.375 3.28125 Z M 0.375 3.28125 "/></g></g></g></g></g></g></g></g></g></mask><clipPath id="3fbbff8d86"><path d="M 4.46875 1.734375 L 103.761719 1.734375 L 103.761719 64.980469 L 4.46875 64.980469 Z M 4.46875 1.734375 " clip-rule="nonzero"/></clipPath><clipPath id="527011be34"><rect x="0" width="104" y="0" height="65"/></clipPath><clipPath id="e2fc4eefe0"><rect x="0" width="104" y="0" height="65"/></clipPath></defs><g clip-path="url(#02f0287695)"><path fill="#ff914d" d="M 19.578125 57.851562 C 21.167969 58.8125 23.171875 58.136719 24.097656 56.527344 C 25.21875 54.585938 24.304688 52.113281 22.464844 50.828125 C 17.957031 47.679688 15.007812 42.449219 15.007812 36.53125 C 15.007812 26.910156 22.808594 19.109375 32.429688 19.109375 C 42.050781 19.109375 49.851562 26.910156 49.851562 36.53125 C 49.851562 42.324219 47.027344 47.457031 42.675781 50.625 C 40.886719 51.929688 40.015625 54.371094 41.121094 56.289062 C 42.066406 57.921875 44.117188 58.59375 45.710938 57.585938 C 52.6875 53.175781 57.320312 45.394531 57.320312 36.53125 C 57.320312 22.785156 46.175781 11.644531 32.429688 11.644531 C 18.683594 11.644531 7.539062 22.785156 7.539062 36.53125 C 7.539062 45.578125 12.363281 53.492188 19.578125 57.851562 Z M 32.429688 46.488281 C 37.929688 46.488281 42.386719 42.03125 42.386719 36.53125 C 42.386719 31.035156 37.929688 26.578125 32.429688 26.578125 C 26.933594 26.578125 22.472656 31.035156 22.472656 36.53125 C 22.472656 42.03125 26.933594 46.488281 32.429688 46.488281 Z M 32.429688 46.488281 " fill-opacity="1" fill-rule="evenodd"/></g><g clip-path="url(#61d3048cc3)"><g transform="matrix(1, 0, 0, 1, 20, -0.000000000000000847)"><g clip-path="url(#05c625795f)"><g clip-path="url(#afa51744ce)"><g mask="url(#bac4aa13a7)"><g transform="matrix(1, 0, 0, 1, 0.000000000000003553, -0.000000000000000847)"><g clip-path="url(#699299ddda)"><g clip-path="url(#99a69d7b5a)"><path fill="url(#bc4fa40f64)" d="M 0.488281 0.0195312 L 0.488281 74.980469 L 204.761719 74.980469 L 204.761719 0.0195312 Z M 0.488281 0.0195312 " fill-rule="nonzero"/></g></g></g></g></g></g></g></g><g clip-path="url(#88a2fe3293)"><g clip-path="url(#531e2b5048)"><g transform="matrix(1, 0, 0, 1, 21, 25)"><g clip-path="url(#da53cd749f)"><g clip-path="url(#098c281c97)"><g clip-path="url(#7126102755)"><path fill="#ffde59" d="M 0.8125 0.183594 L 23.300781 0.183594 L 23.300781 22.671875 L 0.8125 22.671875 Z M 0.8125 0.183594 " fill-opacity="1" fill-rule="nonzero"/></g></g></g></g></g></g><g clip-path="url(#3094b2655f)"><g transform="matrix(1, 0, 0, 1, 121, 10)"><g clip-path="url(#e2fc4eefe0)"><g clip-path="url(#37f3287b3c)"><g mask="url(#4ed07e7a2e)"><g transform="matrix(1, 0, 0, 1, 0.000000000000014211, 0.000000000000001776)"><g clip-path="url(#527011be34)"><g clip-path="url(#3fbbff8d86)"><path fill="url(#1adf9d1766)" d="M 4.46875 1.734375 L 4.46875 64.980469 L 103.761719 64.980469 L 103.761719 1.734375 Z M 4.46875 1.734375 " fill-rule="nonzero"/></g></g></g></g></g></g></g></g></svg>